<?xml version="1.0" encoding="UTF-8" standalone="no"?>
<!-- Created with Inkscape (http://www.inkscape.org/) -->

<svg
   xmlns:dc="http://purl.org/dc/elements/1.1/"
   xmlns:cc="http://creativecommons.org/ns#"
   xmlns:rdf="http://www.w3.org/1999/02/22-rdf-syntax-ns#"
   xmlns:svg="http://www.w3.org/2000/svg"
   xmlns="http://www.w3.org/2000/svg"
   xmlns:sodipodi="http://sodipodi.sourceforge.net/DTD/sodipodi-0.dtd"
   xmlns:inkscape="http://www.inkscape.org/namespaces/inkscape"
   id="svg2"
   version="1.1"
   inkscape:version="0.91 r"
   width="191.03999"
   height="190.56"
   viewBox="0 0 191.03999 190.56"
   sodipodi:docname="satshakit_fc_pin_mapping.svg">
  <metadata
     id="metadata8">
    <rdf:RDF>
      <cc:Work
         rdf:about="">
        <dc:format>image/svg+xml</dc:format>
        <dc:type
           rdf:resource="http://purl.org/dc/dcmitype/StillImage" />
        <dc:title></dc:title>
      </cc:Work>
    </rdf:RDF>
  </metadata>
  <defs
     id="defs6" />
  <sodipodi:namedview
     pagecolor="#ffffff"
     bordercolor="#666666"
     borderopacity="1"
     objecttolerance="10"
     gridtolerance="10"
     guidetolerance="10"
     inkscape:pageopacity="0"
     inkscape:pageshadow="2"
     inkscape:window-width="1920"
     inkscape:window-height="1025"
     id="namedview4"
     showgrid="false"
     inkscape:zoom="2.6684465"
     inkscape:cx="83.449284"
     inkscape:cy="125.25434"
     inkscape:window-x="-2"
     inkscape:window-y="-3"
     inkscape:window-maximized="1"
     inkscape:current-layer="svg2"
     showguides="false" />
  <path
     style="fill:#000000"
     d="M 0,95.280002 0,2.3896484e-6 l 95.519996,0 95.519994,0 0,95.2799996103516 0,95.279998 -95.519994,0 L 0,190.56 0,95.280002 Z m 82.113971,69.775868 c 1.28079,-0.23071 2.43119,-1.3811 2.6619,-2.66189 0.0885,-0.49144 0.0873,-7.44582 -10e-4,-7.92796 -0.0879,-0.47781 -0.39513,-1.12245 -0.72901,-1.52965 l -0.27357,-0.33362 6.44783,-6.49 c 4.812495,-4.84397 6.462085,-6.5397 6.504035,-6.68597 0.0334,-0.11652 0.0562,-2.87823 0.0562,-6.81138 0,-4.37027 0.0204,-6.6154 0.06,-6.6154 0.0391,0 0.06,-0.95 0.06,-2.73 l 0,-2.73 -0.69,0 -0.69,0 0,2.73 c 0,1.78 0.0209,2.73 0.06,2.73 0.0396,0 0.0593,2.21357 0.0579,6.525 l -0.002,6.525 -6.432865,6.47271 -6.43286,6.47271 -0.2908,-0.099 c -1.10877,-0.37736 -2.49673,-0.0323 -3.36586,0.83688 -0.45092,0.4509 -0.82346,1.14558 -0.92921,1.73268 -0.0409,0.22677 -0.0641,1.66582 -0.0641,3.96398 0,2.29816 0.0233,3.73721 0.0641,3.96398 0.0353,0.19581 0.17036,0.57736 0.3002,0.84788 0.64561,1.34519 2.12572,2.08491 3.62965,1.81401 z m -1.09209,-4.91763 c -0.52925,-0.16347 -1.08165,-0.73885 -1.22774,-1.2788 -0.20866,-0.77123 0.20082,-1.61853 0.98252,-2.03304 0.36123,-0.19153 1.10544,-0.19153 1.46667,0 0.37646,0.19962 0.6321,0.44744 0.82988,0.80447 0.15439,0.2787 0.17679,0.37995 0.17679,0.79913 0,0.41918 -0.0224,0.52043 -0.17679,0.79914 -0.32523,0.5871 -0.83751,0.91675 -1.47321,0.94803 -0.2145,0.0105 -0.47466,-0.007 -0.57812,-0.0389 z m 10.09209,4.91763 c 1.280795,-0.23071 2.431195,-1.3811 2.661905,-2.66189 0.0409,-0.22677 0.0641,-1.66582 0.0641,-3.96398 0,-2.29816 -0.0233,-3.73721 -0.0641,-3.96398 -0.15084,-0.83736 -0.81372,-1.80185 -1.52481,-2.21857 l -0.28257,-0.16559 3.75567,-3.75602 c 2.9245,-2.92478 3.76896,-3.80239 3.81574,-3.96553 0.0389,-0.13574 0.0601,-3.40526 0.0601,-9.28491 0,-6.01027 0.0203,-9.0754 0.06,-9.0754 0.0391,0 0.06,-0.95 0.06,-2.73 l 0,-2.73 -0.69,0 -0.69,0 0,2.73 c 0,1.78 0.0209,2.73 0.06,2.73 0.0397,0 0.06,3.03494 0.06,8.98483 l 0,8.98483 -3.88482,3.88517 c -3.866925,3.86726 -3.885955,3.88517 -4.128985,3.88517 -0.8167,0 -1.72723,0.3877 -2.33286,0.99334 -0.45091,0.4509 -0.82345,1.14558 -0.92921,1.73268 -0.0408,0.22677 -0.0641,1.66582 -0.0641,3.96398 0,2.29816 0.0233,3.73721 0.0641,3.96398 0.0353,0.19581 0.17037,0.57736 0.3002,0.84788 0.64561,1.34519 2.12573,2.08491 3.62965,1.81401 z m -1.09209,-4.91763 c -0.52925,-0.16347 -1.08165,-0.73885 -1.22774,-1.2788 -0.20866,-0.77123 0.20082,-1.61853 0.98252,-2.03304 0.36123,-0.19153 1.10544,-0.19153 1.466675,0 0.37646,0.19962 0.6321,0.44744 0.82988,0.80447 0.15439,0.2787 0.17679,0.37995 0.17679,0.79913 0,0.41918 -0.0224,0.52043 -0.17679,0.79914 -0.32523,0.5871 -0.83751,0.91675 -1.473215,0.94803 -0.2145,0.0105 -0.47466,-0.007 -0.57812,-0.0389 z m -43.9079,4.85763 c 1.28079,-0.23071 2.43118,-1.3811 2.66189,-2.66189 0.0874,-0.48506 0.0874,-7.4429 0,-7.92796 -0.13349,-0.74107 -0.66733,-1.58719 -1.31587,-2.0856 l -0.21,-0.16139 1.53,-1.49645 1.53,-1.49645 2.76,-0.003 c 1.6071,-0.002 2.84772,-0.0279 2.97,-0.0622 0.1666,-0.0466 1.53672,-1.3857 6.62989,-6.47967 l 6.4199,-6.42088 4.98049,0 c 3.14462,0 5.05771,-0.0221 5.18995,-0.0601 0.30669,-0.088 6.03547,-5.81632 6.12037,-6.11993 0.0326,-0.11666 0.0589,-1.05675 0.0591,-2.115 0,-1.65319 0.0122,-1.905 0.0903,-1.905 0.078,0 0.09,-0.24334 0.09,-1.83 l 0,-1.83 -0.75,0 -0.75,0 0,1.83 c 0,1.58666 0.012,1.83 0.09,1.83 0.078,0 0.09,0.24164 0.09,1.81475 l 0,1.81476 -2.71476,2.71524 -2.71475,2.71525 -5.12959,0 -5.1296,0 -6.48103,6.48 -6.48102,6.48 -2.89814,0 -2.89813,0 -1.89096,1.85273 -1.89096,1.85273 -0.37745,-0.0303 c -1.30591,-0.10483 -2.6352,0.66681 -3.20929,1.86297 -0.12983,0.27052 -0.26492,0.65207 -0.30019,0.84788 -0.0409,0.22677 -0.0641,1.66582 -0.0641,3.96398 0,2.29816 0.0233,3.73721 0.0641,3.96398 0.0353,0.19581 0.17036,0.57736 0.30019,0.84788 0.64562,1.34519 2.12573,2.08491 3.62966,1.81401 z m -1.0921,-4.85763 c -0.52925,-0.16347 -1.08165,-0.73885 -1.22774,-1.2788 -0.20866,-0.77123 0.20082,-1.61853 0.98253,-2.03304 0.36122,-0.19153 1.10543,-0.19153 1.46666,0 0.37646,0.19962 0.63211,0.44744 0.82988,0.80447 0.15439,0.2787 0.17679,0.37995 0.17679,0.79913 0,0.41918 -0.0224,0.52043 -0.17679,0.79914 -0.32523,0.5871 -0.83751,0.91675 -1.47321,0.94803 -0.2145,0.0105 -0.47466,-0.007 -0.57812,-0.0389 z m 10.0921,4.85763 c 1.28079,-0.23071 2.43118,-1.3811 2.66189,-2.66189 0.10347,-0.57445 0.084,-7.52005 -0.0224,-8.01398 l -0.0841,-0.39 6.85022,-6.855 6.85021,-6.855 4.3501,-6e-4 c 2.65401,0 4.43197,-0.0232 4.5601,-0.0591 0.30462,-0.0852 7.83167,-7.61261 7.91991,-7.92027 0.0365,-0.12742 0.0601,-1.39114 0.0601,-3.22492 0,-1.97026 0.0208,-3.01539 0.06,-3.01539 0.0391,0 0.06,-0.95 0.06,-2.73 l 0,-2.73 -0.69,0 -0.69,0 0,2.73 c 0,1.78 0.0209,2.73 0.06,2.73 0.0392,0 0.06,1.01493 0.06,2.92481 l 0,2.92482 -3.61482,3.61518 -3.61481,3.61519 -4.49958,0 -4.49957,0 -6.90209,6.90112 -6.90208,6.90112 -0.32853,-0.30544 c -1.30309,-1.21156 -3.38027,-1.16839 -4.64519,0.0965 -0.45091,0.45091 -0.82345,1.14558 -0.9292,1.73269 -0.0409,0.22703 -0.0641,1.66608 -0.0641,3.96424 0,2.29816 0.0233,3.73721 0.0641,3.96398 0.0353,0.19581 0.17036,0.57736 0.30019,0.84788 0.64562,1.34519 2.12573,2.08491 3.62966,1.81401 z m -1.0921,-4.85763 c -0.52925,-0.16347 -1.08165,-0.73885 -1.22774,-1.2788 -0.20866,-0.77123 0.20082,-1.61853 0.98253,-2.03304 0.36122,-0.19153 1.10543,-0.19153 1.46666,0 0.37646,0.19962 0.63211,0.44744 0.82988,0.80447 0.15439,0.2787 0.17679,0.37995 0.17679,0.79913 0,0.41918 -0.0224,0.52043 -0.17679,0.79914 -0.32523,0.5871 -0.83751,0.91675 -1.47321,0.94803 -0.2145,0.0105 -0.47466,-0.007 -0.57812,-0.0389 z m 10.09209,4.85763 c 1.28079,-0.23071 2.43119,-1.3811 2.6619,-2.66189 0.0409,-0.22677 0.0641,-1.66582 0.0641,-3.96398 0,-2.29816 -0.0233,-3.73721 -0.0641,-3.96398 -0.10637,-0.59048 -0.47807,-1.28155 -0.93516,-1.73864 l -0.39889,-0.39889 4.16393,-4.16424 4.16392,-4.16425 3.87016,-6e-4 c 2.34135,0 3.95312,-0.0235 4.08017,-0.0591 0.30514,-0.0854 9.27151,-9.05205 9.35989,-9.36023 0.0375,-0.13088 0.0601,-1.76954 0.0601,-4.36495 0,-2.73026 0.0206,-4.15539 0.06,-4.15539 0.0391,0 0.06,-0.95 0.06,-2.73 l 0,-2.73 -0.690005,0 -0.69,0 0,2.73 c 0,1.78 0.0209,2.73 0.06,2.73 0.0394,0 0.06,1.39494 0.06,4.06484 l 0,4.06485 -4.33485,4.33515 -4.33484,4.33516 -4.01923,0 -4.01922,0 -4.50093,4.48774 -4.50093,4.48774 -0.41513,-0.0585 c -1.36533,-0.19235 -2.78444,0.57825 -3.39055,1.84113 -0.12983,0.27053 -0.26492,0.65207 -0.3002,0.84789 -0.0408,0.22677 -0.0641,1.66581 -0.0641,3.96398 0,2.29816 0.0233,3.7372 0.0641,3.96397 0.0353,0.19582 0.17037,0.57737 0.3002,0.84789 0.64561,1.34519 2.12573,2.08491 3.62965,1.81401 z m -1.09209,-4.85763 c -0.52925,-0.16347 -1.08165,-0.73885 -1.22774,-1.2788 -0.20866,-0.77123 0.20082,-1.61853 0.98252,-2.03304 0.36123,-0.19153 1.10544,-0.19153 1.46667,0 0.37646,0.19962 0.6321,0.44744 0.82988,0.80447 0.15439,0.2787 0.17679,0.37995 0.17679,0.79913 0,0.41918 -0.0224,0.52043 -0.17679,0.79914 -0.32523,0.5871 -0.83751,0.91675 -1.47321,0.94803 -0.2145,0.0105 -0.47466,-0.007 -0.57812,-0.0389 z m 10.09209,4.85763 c 1.28079,-0.23071 2.43119,-1.3811 2.6619,-2.66189 0.0886,-0.49173 0.0873,-7.44642 -10e-4,-7.92651 -0.13935,-0.75381 -0.62245,-1.54303 -1.23274,-2.01386 l -0.33005,-0.25463 2.02884,-2.02949 2.02883,-2.02949 2.07033,-6e-4 c 1.16709,0 2.16195,-0.026 2.28033,-0.0591 0.30564,-0.0855 11.191385,-10.97155 11.279895,-11.28019 0.0381,-0.13284 0.0601,-2.13775 0.0601,-5.47499 0,-3.47026 0.0205,-5.26539 0.06,-5.26539 0.0391,0 0.06,-0.95 0.06,-2.73 l 0,-2.73 -0.69,0 -0.69,0 0,2.73 c 0,1.78 0.0209,2.73 0.06,2.73 0.0395,0 0.06,1.76496 0.06,5.17487 l 0,5.17487 -5.294875,5.29513 -5.29488,5.29513 -2.21838,0 -2.21838,0 -2.38732,2.38456 -2.38731,2.38456 -0.3773,-0.0194 c -1.31356,-0.0675 -2.59087,0.68835 -3.15723,1.86841 -0.12984,0.27053 -0.26493,0.65207 -0.3002,0.84789 -0.0409,0.22677 -0.0641,1.66581 -0.0641,3.96398 0,2.29816 0.0233,3.7372 0.0641,3.96397 0.0353,0.19582 0.17036,0.57737 0.3002,0.84789 0.64561,1.34519 2.12573,2.08491 3.62965,1.81401 z m -1.09209,-4.85763 c -0.52925,-0.16347 -1.08165,-0.73885 -1.22774,-1.2788 -0.20866,-0.77123 0.20082,-1.61853 0.98252,-2.03304 0.36123,-0.19153 1.10544,-0.19153 1.46667,0 0.37646,0.19962 0.6321,0.44744 0.82988,0.80447 0.15439,0.2787 0.17679,0.37995 0.17679,0.79913 0,0.41918 -0.0224,0.52043 -0.17679,0.79914 -0.32523,0.5871 -0.83751,0.91675 -1.47321,0.94803 -0.2145,0.0105 -0.47466,-0.007 -0.57812,-0.0389 z m 28.092099,4.85763 c 1.28079,-0.23071 2.43118,-1.3811 2.6619,-2.66189 0.0375,-0.20797 0.0641,-1.22472 0.0641,-2.445 l 0,-2.08898 4.63499,-6e-4 c 2.91982,0 4.71533,-0.0226 4.85205,-0.0606 0.174,-0.0483 0.67218,-0.52438 2.51127,-2.39967 l 2.29421,-2.33937 2.89278,0 2.89278,0 0.10093,0.3202 c 0.23141,0.73409 0.95175,1.42635 1.74322,1.67527 0.42002,0.13209 0.48372,0.13453 3.51776,0.13453 3.02248,0 3.09923,-0.003 3.51223,-0.13285 1.43697,-0.45212 2.22111,-1.98528 1.76713,-3.45511 -0.24035,-0.77817 -0.94549,-1.48174 -1.72693,-1.72311 -0.36331,-0.11195 -0.56403,-0.11867 -3.55243,-0.11867 -3.00347,0 -3.18757,0.006 -3.55795,0.12064 -0.76513,0.23632 -1.49457,0.9587 -1.71063,1.69406 l -0.10142,0.34513 -3.12,-0.001 -3.12,-10e-4 -2.37,2.40382 -2.37,2.40381 -4.53863,-0.002 -4.53863,-0.002 -0.0254,-1.155 c -0.0231,-1.05123 -0.0385,-1.18734 -0.17136,-1.515 l -0.14594,-0.36 -0.0153,-13.815 c -0.0102,-9.2191 0.005,-13.815 0.045,-13.815 0.0395,0 0.0603,-0.94229 0.0603,-2.73 l 0,-2.73 -0.69,0 -0.69,0 0,2.73 c 0,1.78001 0.0209,2.73 0.06,2.73 0.0398,0 0.06,4.4087 0.06,13.1061 l 0,13.1061 -0.45138,-0.20856 c -1.656524,-0.76536 -3.624214,-0.0709 -4.404294,1.5545 -0.12983,0.27052 -0.26492,0.65207 -0.3002,0.84789 -0.0408,0.22677 -0.0641,1.66581 -0.0641,3.96398 0,2.29816 0.0233,3.7372 0.0641,3.96397 0.0353,0.19582 0.17037,0.57737 0.3002,0.84789 0.64561,1.34519 2.12573,2.08491 3.629654,1.81401 z m -1.092094,-4.91763 c -0.52925,-0.16347 -1.08165,-0.73885 -1.22774,-1.2788 -0.20866,-0.77123 0.20082,-1.61853 0.98252,-2.03304 0.36123,-0.19153 1.10544,-0.19153 1.466674,0 0.37645,0.19962 0.6321,0.44744 0.82988,0.80447 0.15439,0.2787 0.17678,0.37995 0.17678,0.79913 0,0.41918 -0.0224,0.52043 -0.17678,0.79914 -0.32523,0.5871 -0.83751,0.91675 -1.473224,0.94803 -0.2145,0.0105 -0.47465,-0.007 -0.57811,-0.0389 z m 28.799984,-5.94 c -0.52924,-0.16347 -1.08165,-0.73885 -1.22773,-1.2788 -0.20867,-0.77123 0.20082,-1.61853 0.98252,-2.03304 0.36122,-0.19153 1.10544,-0.19153 1.46666,0 0.37646,0.19962 0.63211,0.44744 0.82989,0.80447 0.15438,0.2787 0.17678,0.37995 0.17678,0.79913 0,0.41918 -0.0224,0.52043 -0.17678,0.79914 -0.32523,0.5871 -0.83751,0.91675 -1.47322,0.94803 -0.2145,0.0105 -0.47465,-0.007 -0.57812,-0.0389 z m 24.15812,7.29176 0,-2.85 -3.21,0 -3.21,0 0,1.14 0,1.14 -3.6,0 -3.6,0 -6e-4,-11.805 c 0,-7.4837 -0.0217,-11.88187 -0.0588,-12.015 -0.0456,-0.16384 -0.66899,-0.81991 -2.83617,-2.985 l -2.77767,-2.775 -4.04849,-0.002 -4.0485,-0.002 -2.86788,-2.83339 -2.86788,-2.83339 0.003,-3.54 c 0.002,-2.26002 -0.0199,-3.62072 -0.0594,-3.76323 -0.11762,-0.42353 0.0225,-0.40677 -3.40068,-0.40677 -2.6948,0 -3.07665,-0.0112 -3.07665,-0.09 0,-0.078 -0.24334,-0.09 -1.83,-0.09 l -1.83,0 0,0.75 0,0.75 1.83,0 c 1.58666,0 1.83,-0.012 1.83,-0.09 0,-0.0787 0.34,-0.09 2.7,-0.09 l 2.7,0 -0.001,3.525 -10e-4,3.525 3.13642,3.10306 c 2.40009,2.37456 3.18574,3.11753 3.34644,3.16467 0.13408,0.0393 1.6198,0.0617 4.10974,0.0619 l 3.89973,6e-4 2.50527,2.50473 2.50526,2.50474 0,11.71526 0,11.71527 -1.785,0 -1.785,0 -0.10141,-0.34513 c -0.21607,-0.73536 -0.94551,-1.45774 -1.71064,-1.69406 -0.37038,-0.1144 -0.55448,-0.12064 -3.55795,-0.12064 -3.00347,0 -3.18757,0.006 -3.55795,0.12064 -0.77818,0.24035 -1.48175,0.94549 -1.72312,1.72693 -0.45149,1.46178 0.33442,2.99852 1.76331,3.4479 0.42002,0.13209 0.48372,0.13453 3.51776,0.13453 3.03404,0 3.09775,-0.002 3.51776,-0.13453 0.79147,-0.24891 1.51182,-0.94118 1.74322,-1.67527 l 0.10093,-0.3202 5.95905,0 5.95904,0 0,1.14 0,1.14 3.21,0 3.21,0 0,-2.85 z m -24.15812,1.70824 c -0.52924,-0.16347 -1.08165,-0.73885 -1.22773,-1.2788 -0.20867,-0.77123 0.20082,-1.61853 0.98252,-2.03304 0.36122,-0.19153 1.10544,-0.19153 1.46666,0 0.37646,0.19962 0.63211,0.44744 0.82989,0.80447 0.15438,0.2787 0.17678,0.37995 0.17678,0.79913 0,0.41918 -0.0224,0.52043 -0.17678,0.79914 -0.32523,0.5871 -0.83751,0.91675 -1.47322,0.94803 -0.2145,0.0105 -0.47465,-0.007 -0.57812,-0.0389 z m 24.15812,-11.78824 0,-2.85 -1.32,0 -1.32,0 0,-2.16 0,-2.16 1.38,0 1.38,0 0,-2.85 0,-2.85 -3.21,0 -3.21,0 0,2.85 0,2.85 1.26,0 1.26,0 0,2.16 0,2.16 -1.32,0 -1.32,0 0,2.85 0,2.85 3.21,0 3.21,0 0,-2.85 z m -39.80602,-1.53413 c 1.28079,-0.23071 2.43118,-1.3811 2.6619,-2.66189 0.0353,-0.19581 0.0641,-0.98556 0.0641,-1.755 l 0,-1.39898 4.00905,0 4.00904,0 0.10093,0.3202 c 0.23141,0.73409 0.95175,1.42636 1.74322,1.67527 0.42002,0.13209 0.48372,0.13453 3.51776,0.13453 3.03404,0 3.09775,-0.002 3.51776,-0.13453 2.10289,-0.66135 2.56755,-3.48119 0.78934,-4.79023 -0.6855,-0.50464 -0.69063,-0.50524 -4.3071,-0.50524 -3.00347,0 -3.18757,0.006 -3.55795,0.12064 -0.76513,0.23632 -1.49457,0.9587 -1.71063,1.69406 l -0.10142,0.34513 -4.005,0 -4.005,0 0,-1.63898 c 0,-0.90144 -0.0289,-1.79919 -0.0641,-1.995 -0.10576,-0.5871 -0.4783,-1.28178 -0.92921,-1.73268 -1.62202,-1.62203 -4.37148,-1.16647 -5.36647,0.88918 -0.13211,0.27293 -0.2402,0.54807 -0.2402,0.61141 0,0.0767 -0.50164,-0.38617 -1.5,-1.38393 l -1.5,-1.4991 0,-5.05545 c 0,-4.45373 0.0107,-5.05545 0.09,-5.05545 0.078,0 0.09,-0.24333 0.09,-1.83 l 0,-1.83 -0.74999,0 -0.75,0 0,1.83 c 0,1.58667 0.012,1.83 0.09,1.83 0.0793,0 0.09,0.62811 0.09,5.29296 l 0,5.29296 2.00999,2.0132 2.01,2.0132 0,3.09282 c 0,1.93262 0.0241,3.22638 0.0641,3.44884 0.0353,0.19582 0.17037,0.57736 0.3002,0.84788 0.64561,1.34519 2.12573,2.08491 3.62965,1.81401 z m 15.6479,-4.67763 c -0.52924,-0.16347 -1.08165,-0.73885 -1.22773,-1.2788 -0.20867,-0.77123 0.20082,-1.61853 0.98252,-2.03304 0.36122,-0.19153 1.10544,-0.19153 1.46666,0 0.37646,0.19962 0.63211,0.44744 0.82989,0.80447 0.15438,0.2787 0.17678,0.37995 0.17678,0.79913 0,0.41918 -0.0224,0.52043 -0.17678,0.79914 -0.32523,0.5871 -0.83751,0.91675 -1.47322,0.94803 -0.2145,0.0105 -0.47465,-0.007 -0.57812,-0.0389 z m -16.73999,-0.24 c -0.52925,-0.16347 -1.08165,-0.73885 -1.22774,-1.2788 -0.20866,-0.77123 0.20082,-1.61853 0.98252,-2.03304 0.36123,-0.19153 1.10544,-0.19153 1.46667,0 0.37645,0.19962 0.6321,0.44744 0.82988,0.80447 0.15439,0.2787 0.17678,0.37995 0.17678,0.79913 0,0.41918 -0.0224,0.52044 -0.17678,0.79914 -0.32523,0.5871 -0.83751,0.91675 -1.47322,0.94803 -0.2145,0.0105 -0.47465,-0.007 -0.57811,-0.0389 z M 57.000001,132.33 l 0,-9.75 -0.31462,0 -0.31462,0 1.76924,-1.77 1.76923,-1.77 8.71538,0 c 7.70701,0 8.71539,0.0104 8.71539,0.09 0,0.078 0.24333,0.09 1.83,0.09 l 1.83,0 0,-0.75 0,-0.75 -1.83,0 c -1.58667,0 -1.83,0.012 -1.83,0.09 0,0.0796 -1.03481,0.09 -8.95324,0.09 l -8.95323,0 -2.34277,2.34 -2.34277,2.34 -2.444,0 -2.44399,0 0,4.44 0,4.44 -2.13,0 -2.13,0 0,-1.32 0,-1.32 -2.01,0 -2.01,0 0,3.21 0,3.21 2.01,0 2.01,0 0,-1.32 0,-1.32 2.13,0 2.13,0 0,4.74 0,4.74 3.57,0 3.57,0 0,-9.75 z m 98.774669,4.51557 c 0.0928,-0.0608 0.18552,-0.19862 0.22201,-0.33 0.0429,-0.15458 0.0627,-6.34517 0.063,-19.66961 l 6e-4,-19.444048 0.32574,-0.10267 c 0.72847,-0.22964 1.4221,-0.95464 1.67141,-1.74701 0.12994,-0.413 0.13285,-0.48975 0.13285,-3.51223 0,-3.03404 -0.002,-3.09775 -0.13453,-3.51776 -0.26156,-0.83169 -0.95114,-1.52205 -1.76825,-1.77024 l -0.40722,-0.12369 0,-3.1932 0,-3.1932 0.3202,-0.10093 c 0.73409,-0.231399 1.42636,-0.951749 1.67527,-1.743219 0.13209,-0.42001 0.13453,-0.48372 0.13453,-3.51776 0,-3.02248 -0.003,-3.09923 -0.13285,-3.51223 -0.24931,-0.79237 -0.94294,-1.51737 -1.67141,-1.747 l -0.32574,-0.10268 0,-3.66809 0,-3.66809 0.32574,-0.10268 c 0.72847,-0.22963 1.4221,-0.95463 1.67141,-1.747 0.12994,-0.413 0.13285,-0.48975 0.13285,-3.51223 0,-2.82298 -0.009,-3.12069 -0.10963,-3.44516 l -0.10963,-0.35516 3.12455,-3.12498 c 2.42048,-2.4208 3.13809,-3.17218 3.18464,-3.33444 0.0843,-0.29405 0.0818,-19.56956 -0.003,-19.87349 -0.0341,-0.12278 -0.12096,-0.26453 -0.19302,-0.315 -0.11766,-0.0822 -6.73987,-0.0918 -63.63067,-0.0918 l -63.499379,0 -0.14727,0.14727 -0.14727,0.14727 0,4.92273 0,4.92273 -1.14,0 -1.14,0 0,3.21 0,3.21 1.14,0 1.14,0 0,13.56 0,13.56 -1.29,0 -1.29,0 0,2.85 0,2.85 3.21,0 3.21,0 0,-2.85 0,-2.85 -1.35,0 -1.35,0 0,-13.56 0,-13.56 1.14,0 1.14,0 0,-3.21 0,-3.21 -1.14,0 -1.14,0 0,-4.5 0,-4.5 27.03,0 27.030005,0 0,3.495 0,3.495 -0.35064,0.10303 c -0.731665,0.21499 -1.453145,0.94684 -1.690265,1.71455 -0.11238,0.3633 -0.1191,0.56403 -0.1191,3.55242 0,2.98839 0.007,3.18912 0.11893,3.55242 0.24137,0.78145 0.94494,1.48658 1.723115,1.72694 1.46983,0.45398 3.00299,-0.33016 3.45511,-1.76713 0.12994,-0.413 0.13285,-0.48976 0.13285,-3.51223 0,-3.02248 -0.003,-3.09923 -0.13285,-3.51223 -0.24931,-0.79237 -0.94294,-1.51737 -1.67141,-1.747 l -0.32574,-0.10268 0,-3.49905 0,-3.49904 35.099994,0 35.09999,0 0,9.37523 0,9.37522 -2.95521,2.95476 -2.95521,2.95476 -0.29746,-0.21149 c -0.61875,-0.43991 -1.59408,-0.57369 -2.39007,-0.32784 -0.77817,0.24035 -1.48175,0.94549 -1.72311,1.72694 -0.11222,0.3633 -0.11894,0.56403 -0.11894,3.55242 0,2.98839 0.007,3.18912 0.11894,3.55243 0.23712,0.7677 0.9586,1.49955 1.69026,1.71454 l 0.35064,0.10303 0,3.66 0,3.66 -0.35064,0.10303 c -0.73166,0.21499 -1.45314,0.94684 -1.69026,1.71454 -0.11222,0.36331 -0.11894,0.56403 -0.11894,3.55243 0,3.00347 0.006,3.18757 0.12065,3.55795 0.23641,0.76542 0.95892,1.49479 1.69452,1.710639 l 0.34561,0.10141 -0.0154,3.23102 -0.0154,3.23103 -0.28305,0.10744 c -0.68301,0.25925 -1.32659,0.95122 -1.5463,1.66256 -0.11441,0.37038 -0.12065,0.55448 -0.12065,3.55795 0,2.9884 0.007,3.18912 0.11894,3.55243 0.23712,0.7677 0.9586,1.49955 1.69026,1.71454 l 0.35064,0.10303 0,19.214998 0,19.215 -6.07467,0 -6.07467,0 -1.99533,-1.99466 -1.99533,-1.99467 0,-5.95533 0,-5.95534 1.32,0 1.32,0 0,-2.85 0,-2.85 -3.21,0 -3.21,0 0,1.08 0,1.08 -3.09,0 -3.09,0 0,-1.14 0,-1.14 -3.21,0 -3.21,0 0,0.45 0,0.45 -1.98,0 -1.98,0 -6e-4,-2.505 c 0,-1.55533 -0.0241,-2.59051 -0.063,-2.73057 -0.0344,-0.12406 -0.12205,-0.26319 -0.19466,-0.3092 -0.10916,-0.0691 -1.10096,-0.091 -5.72703,-0.12648 l -5.595,-0.0428 0,0.64506 0,0.64506 5.22,-0.0447 5.22,-0.0446 0,2.24963 0,2.24963 -10.755,-0.0292 -10.754994,-0.0292 -4.2,-4.18676 -4.200005,-4.18675 -3.44488,-0.037 c -1.89468,-0.0204 -4.15593,-0.037 -5.025,-0.037 l -1.58012,0 0,0.639 0,0.639 4.785,-0.0423 4.785,-0.0423 2.25,2.25984 2.250005,2.25985 -7.035005,-0.0396 -7.035,-0.0396 0,0.63444 0,0.63443 7.59463,-0.0413 7.594625,-0.0413 1.3309,1.32992 c 0.98779,0.98705 1.38481,1.34537 1.53999,1.38988 0.13262,0.038 2.26602,0.06 5.834474,0.06 3.77135,0 5.62538,0.0201 5.62538,0.061 0,0.0412 2.51879,0.0477 7.77,0.0201 l 7.77,-0.0409 0,1.83989 0,1.83989 3.21,0 3.21,0 0,-1.14 0,-1.14 3.09,0 3.09,0 0,1.2 0,1.2 1.32,0 1.32,0 0,6.19316 0,6.19317 2.265,2.26862 c 1.51806,1.52048 2.32436,2.28621 2.445,2.32196 0.10112,0.03 3.04713,0.0489 6.72266,0.0432 6.10647,-0.009 6.55328,-0.0171 6.70202,-0.11455 z m -0.7728,-43.067328 c -0.52925,-0.16347 -1.08165,-0.73885 -1.22774,-1.2788 -0.20866,-0.77123 0.20082,-1.61853 0.98253,-2.03304 0.36122,-0.19153 1.10544,-0.19153 1.46666,0 0.37646,0.19962 0.63211,0.44744 0.82989,0.80447 0.15438,0.2787 0.17678,0.37995 0.17678,0.79913 0,0.41918 -0.0224,0.52043 -0.17678,0.79913 -0.32523,0.5871 -0.83751,0.91676 -1.47322,0.94803 -0.2145,0.0106 -0.47465,-0.007 -0.57812,-0.0389 z m -0.18,-17.159999 c -0.52925,-0.16347 -1.08165,-0.73885 -1.22774,-1.2788 -0.20866,-0.77123 0.20082,-1.61853 0.98253,-2.03304 0.36122,-0.19153 1.10544,-0.19153 1.46666,0 0.37646,0.19962 0.63211,0.44744 0.82989,0.80447 0.15438,0.2787 0.17678,0.37995 0.17678,0.79913 0,0.41918 -0.0224,0.52043 -0.17678,0.79913 -0.32523,0.5871 -0.83751,0.91676 -1.47322,0.94803 -0.2145,0.0106 -0.47465,-0.007 -0.57812,-0.0389 z m 0,-18.06 c -0.52925,-0.16347 -1.08165,-0.73885 -1.22774,-1.2788 -0.15391,-0.56886 0.0793,-1.32809 0.52931,-1.7232 0.38967,-0.34213 0.66223,-0.44416 1.18655,-0.44416 0.38163,0 0.53192,0.0275 0.73333,0.13433 0.37646,0.19962 0.63211,0.44743 0.82989,0.80446 0.15438,0.2787 0.17678,0.37995 0.17678,0.79913 0,0.41919 -0.0224,0.52043 -0.17678,0.79913 -0.32523,0.58711 -0.83751,0.91676 -1.47322,0.94803 -0.2145,0.0106 -0.47465,-0.007 -0.57812,-0.0389 z m -63.059984,-17.04 c -0.52925,-0.16347 -1.081655,-0.73885 -1.227745,-1.2788 -0.15391,-0.56886 0.0793,-1.32809 0.52931,-1.7232 0.389675,-0.34213 0.662225,-0.44416 1.186555,-0.44416 0.38163,0 0.53191,0.0275 0.73333,0.13433 0.37646,0.19962 0.6321,0.44743 0.82988,0.80446 0.15439,0.2787 0.17679,0.37995 0.17679,0.79913 0,0.41919 -0.0224,0.52043 -0.17679,0.79913 -0.32523,0.58711 -0.83751,0.91676 -1.47321,0.94803 -0.2145,0.0105 -0.47466,-0.007 -0.57812,-0.0389 z M 34.980001,132.03 l 0,-3.21 -0.72,0 -0.72,0 0,-13.35 0,-13.35 0.69,0 0.69,0 0,-3.209998 0,-3.21 -0.72,0 -0.72,0 6e-4,-1.065 6e-4,-1.065 1.38322,-1.4237 c 0.9581,-0.98614 1.40049,-1.48391 1.43941,-1.61961 0.0309,-0.10774 0.0562,-1.26933 0.0562,-2.58129 l 0,-2.3854 1.98,0 1.98,0 0,-1.11 0,-1.11 10.00468,0 10.00468,0 2.08532,2.08468 2.08532,2.08468 0,9.44825 0,9.448248 1.995,1.99861 c 1.58083,1.5837 2.03859,2.00954 2.205,2.05124 0.1155,0.0289 3.33525,0.0702 7.155,0.0917 l 6.945,0.0391 0,-0.6367 0,-0.6367 -6.84507,0.043 -6.84507,0.043 -1.73493,-1.73415 -1.73493,-1.73416 0,-0.51962 0,-0.51961 14.50808,0 14.508075,0 1.36044,1.3182 c 0.93744,0.90832 1.42141,1.33569 1.55653,1.37443 0.11423,0.0328 2.09351,0.0562 4.741484,0.0562 3.03963,0 4.54539,0.0202 4.54539,0.061 0,0.0412 2.51878,0.0477 7.77,0.0201 l 7.77,-0.0409 0,1.11989 0,1.11989 3.20999,0 3.21,0 0,-1.14 0,-1.13999 3.09,0 3.09,0 0,1.16999 0,1.17 3.21,0 3.21,0 0,-1.14 0,-1.14 3.45,0 3.45,0 0,10.44 0,10.44 -1.32,0 -1.32,0 0,2.85 0,2.85 3.21,0 3.21,0 0,-2.85 0,-2.85 -1.32,0 -1.32,0 0,-14.47539 c 0,-9.45905 -0.0208,-14.547804 -0.0599,-14.684354 -0.0438,-0.1528 -0.35979,-0.50913 -1.17603,-1.32622 l -1.11611,-1.11726 0.19262,-0.13716 c 0.31455,-0.22398 0.70754,-0.81322 0.85492,-1.28185 0.13209,-0.42001 0.13453,-0.48372 0.13453,-3.51776 0,-3.03404 -0.002,-3.09775 -0.13453,-3.51776 -0.26156,-0.83169 -0.95114,-1.52205 -1.76824,-1.77024 l -0.40723,-0.12369 0,-3.1932 0,-3.1932 0.3202,-0.10093 c 0.73409,-0.231399 1.42636,-0.951749 1.67527,-1.743219 0.13209,-0.42001 0.13453,-0.48372 0.13453,-3.51776 0,-3.02248 -0.003,-3.09923 -0.13285,-3.51223 -0.24931,-0.79237 -0.94294,-1.51737 -1.67141,-1.747 l -0.32574,-0.10268 0,-3.66809 0,-3.66809 0.3202,-0.10093 c 0.73409,-0.2314 1.42636,-0.95175 1.67527,-1.74322 0.13209,-0.42001 0.13453,-0.48372 0.13453,-3.51776 0,-3.02247 -0.003,-3.09923 -0.13285,-3.51223 -0.66331,-2.10821 -3.48101,-2.5756 -4.79191,-0.79487 -0.50465,0.68508 -0.50525,0.69022 -0.50525,4.30668 0,2.98839 0.007,3.18912 0.11893,3.55243 0.23713,0.7677 0.9586,1.49955 1.69026,1.71454 l 0.35064,0.10303 0,3.66 0,3.66 -0.34513,0.10141 c -0.73536,0.21607 -1.45774,0.94551 -1.69406,1.71064 -0.1144,0.37038 -0.12064,0.55448 -0.12064,3.55795 0,3.00347 0.006,3.18757 0.12064,3.55795 0.23641,0.76542 0.95892,1.49479 1.69453,1.710639 l 0.34561,0.10141 -0.0154,3.23102 -0.0154,3.23103 -0.28306,0.10744 c -0.68301,0.25925 -1.32658,0.95122 -1.5463,1.66256 -0.1144,0.37038 -0.12064,0.55448 -0.12064,3.55795 0,2.9884 0.007,3.18912 0.11893,3.55243 0.3349,1.08427 1.38502,1.84757 2.54184,1.84757 l 0.42813,0 1.18555,1.18444 1.18555,1.18443 0,3.375574 0,3.37556 -3.45,0 -3.45,0 0,-1.14 0,-1.14 -3.21,0 -3.21,0 0,1.11 0,1.11 -3.09,0 -3.09,0 0,-1.14 0,-1.14 -3.21,0 -3.21,0 0,1.17992 0,1.17992 -7.56994,-0.0399 c -4.16348,-0.0219 -9.66473,-0.0405 -12.22499,-0.0413 l -4.655064,-0.001 -1.4221,-1.37863 -1.42209,-1.37863 -6.167915,-0.0144 c -3.39234,-0.008 -9.98037,-0.004 -14.64005,0.01 -6.83767,0.0194 -8.49007,0.009 -8.565,-0.053 -0.083,-0.0688 -0.0929,-0.94397 -0.0932,-8.214704 0,-5.09626 -0.0222,-8.21614 -0.0588,-8.34766 -0.0454,-0.16296 -0.58659,-0.73747 -2.41643,-2.565 l -2.35799,-2.35499 -7.63323,0 -7.63323,0 -3.6e-4,-14.234999 c -2.4e-4,-9.08473 -0.0215,-14.31098 -0.059,-14.445 -0.0442,-0.15833 -0.39845,-0.54944 -1.43967,-1.58951 l -1.381,-1.37951 0,-9.82549 0,-9.82549 13.79392,0 13.79392,0 8.77509,8.81967 c 7.14967,7.18599 8.81509,8.83078 8.99108,8.87966 0.30374,0.0844 13.037299,0.0818 13.341559,-0.003 0.41595,-0.11551 0.43205,-0.1837 0.45305,-1.91905 l 0.0186,-1.538 0.31659,-0.0998 c 0.73047,-0.23026 1.42325,-0.95222 1.67166,-1.74208 0.13209,-0.42001 0.13452,-0.48372 0.13452,-3.51776 0,-3.02248 -0.003,-3.09923 -0.13284,-3.51223 -0.66332,-2.10821 -3.48102,-2.5756 -4.791924,-0.79487 -0.50464,0.6855 -0.50524,0.69064 -0.50524,4.3071 0,2.9884 0.007,3.18912 0.11894,3.55243 0.23712,0.7677 0.9586,1.49955 1.690264,1.71454 l 0.35064,0.10303 0,1.185 0,1.185 -6.135004,0.003 -6.135005,0.003 -8.84983,-8.8845 -8.85,-8.8845 -14.44773,0.002 -14.44773,0.002 -0.14727,0.14728 -0.14727,0.14727 0,10.48492 0,10.48491 1.44,1.4444 1.44,1.44439 0,14.14342 0,14.143409 -2.04,0 -2.04,0 0,-1.17 0,-1.169999 -3.21,0 -3.21,0 0,2.849999 0,2.85 0.588,0 c 0.37733,0 0.61379,0.0258 0.66,0.072 0.0534,0.0534 0.0717,0.64476 0.0709,2.295 l -10e-4,2.223 -1.43892,1.48215 -1.43891,1.48214 0,1.29286 0,1.29285 -0.72,0 -0.72,0 0,3.21 0,3.210004 0.75,0 0.75,0 0,13.34999 0,13.35 -0.72,0 -0.72,0 0,3.21 0,3.21 2.01,0 2.01,0 0,-3.21 z M 145.10187,93.778242 c -0.52925,-0.16347 -1.08165,-0.73885 -1.22774,-1.2788 -0.20866,-0.77123 0.20082,-1.61853 0.98253,-2.03304 0.36122,-0.19153 1.10544,-0.19153 1.46666,0 0.37646,0.19962 0.63211,0.44744 0.82989,0.80447 0.15438,0.2787 0.17678,0.37995 0.17678,0.79913 0,0.41918 -0.0224,0.52043 -0.17678,0.79913 -0.32523,0.5871 -0.83751,0.91676 -1.47322,0.94803 -0.2145,0.0106 -0.47465,-0.007 -0.57812,-0.0389 z m -0.18,-17.159999 c -0.52925,-0.16347 -1.08165,-0.73885 -1.22774,-1.2788 -0.20866,-0.77123 0.20082,-1.61853 0.98253,-2.03304 0.36122,-0.19153 1.10544,-0.19153 1.46666,0 0.37646,0.19962 0.63211,0.44744 0.82989,0.80447 0.15438,0.2787 0.17678,0.37995 0.17678,0.79913 0,0.41918 -0.0224,0.52043 -0.17678,0.79913 -0.32523,0.5871 -0.83751,0.91676 -1.47322,0.94803 -0.2145,0.0106 -0.47465,-0.007 -0.57812,-0.0389 z m 0,-18.06 c -0.52925,-0.16347 -1.08165,-0.73885 -1.22774,-1.2788 -0.15391,-0.56886 0.0793,-1.32809 0.52931,-1.7232 0.38967,-0.34213 0.66223,-0.44416 1.18655,-0.44416 0.38163,0 0.53192,0.0275 0.73333,0.13433 0.37646,0.19962 0.63211,0.44743 0.82989,0.80446 0.15438,0.2787 0.17678,0.37995 0.17678,0.79913 0,0.41919 -0.0224,0.52043 -0.17678,0.79913 -0.32523,0.58711 -0.83751,0.91676 -1.47322,0.94803 -0.2145,0.0106 -0.47465,-0.007 -0.57812,-0.0389 z m -44.15998,-17.04 c -0.52925,-0.16347 -1.081654,-0.73885 -1.227744,-1.2788 -0.15391,-0.56886 0.0793,-1.32809 0.529314,-1.7232 0.38967,-0.34213 0.66222,-0.44416 1.18654,-0.44416 0.38163,0 0.53192,0.0275 0.73334,0.13433 0.37645,0.19962 0.6321,0.44743 0.82988,0.80446 0.15439,0.2787 0.17678,0.37995 0.17678,0.79913 0,0.41919 -0.0224,0.52043 -0.17678,0.79913 -0.32523,0.58711 -0.83751,0.91676 -1.47322,0.94803 -0.2145,0.0105 -0.47465,-0.007 -0.57811,-0.0389 z m -17.961889,74.075877 0,-0.62589 -10.065,0.0323 -10.065,0.0323 -3.2998,-3.30644 -3.29979,-3.30643 0.46479,0 0.4648,0 0,-9.749998 0,-9.75 -3.57,0 -3.57,0 0,4.71 0,4.71 -2.16,0 -2.16,0 0,-1.32 0,-1.32 -2.01,0 -2.01,0 0,3.21 0,3.209998 2.01,0 2.01,0 0,-1.32 0,-1.319998 2.16,0 2.16,0 0,4.469998 0,4.47 2.29518,0 2.29517,0 3.77983,3.78367 c 2.07889,2.08102 3.83382,3.81577 3.89982,3.855 0.0902,0.0536 1.99399,0.0789 7.68,0.10202 4.158,0.0169 8.78175,0.0371 10.275,0.045 l 2.715,0.0143 0,-0.62588 z m 29.519989,-2.82412 0,-0.63 -2.73,0 -2.73,0 0,0.63 0,0.63 2.73,0 2.73,0 0,-0.63 z m 0,-8.46 0,-0.63 -2.73,0 -2.73,0 0,0.63 0,0.63 2.73,0 2.73,0 0,-0.63 z m -26.876089,-2.36924 c 0.14719,-0.0415 0.37465,-0.22455 0.72929,-0.58695 0.45625,-0.46626 0.52018,-0.55867 0.55718,-0.80543 0.023,-0.1533 0.0229,-0.39565 0,-0.53856 -0.0393,-0.243838 -0.16887,-0.387198 -2.10608,-2.330948 l -2.06429,-2.07113 0,-5.42926 c 0,-3.32504 -0.0226,-5.51051 -0.0582,-5.63888 -0.0466,-0.16788 -2.69478,-2.83806 -13.30485,-13.415549 l -13.24664,-13.20594 0.28707,-0.29118 c 0.38293,-0.38842 0.62836,-0.90199 0.70105,-1.46693 0.0318,-0.2475 0.0579,-1.5165 0.0579,-2.82 0,-1.3035 -0.026,-2.5725 -0.0579,-2.82 -0.11147,-0.86636 -0.64329,-1.60781 -1.43162,-1.99591 -0.3754,-0.1848 -0.42739,-0.19409 -1.08678,-0.19409 -0.6594,0 -0.71139,0.009 -1.08679,0.19409 -0.50351,0.24788 -0.96124,0.70562 -1.20912,1.20913 l -0.19409,0.39426 0,3.21252 0,3.21252 0.19409,0.39426 c 0.24634,0.50039 0.7056,0.96124 1.20091,1.20508 0.32123,0.15814 0.48021,0.19577 0.94693,0.2241 l 0.56089,0.034 13.29359,13.25047 13.29359,13.250469 0,5.58757 0,5.58756 2.10057,2.10365 2.10057,2.103648 -0.28557,0.28081 -0.28557,0.2808 -3.855,-0.0372 -3.855,-0.0372 0,0.6495 0,0.64951 3.945,-0.0393 c 2.33008,-0.0232 4.03256,-0.064 4.1589,-0.0996 z M 53.891781,54.859193 c -0.55674,-0.19693 -1.03178,-0.88256 -1.03178,-1.48919 0,-0.83859 0.7514,-1.59 1.59,-1.59 0.83859,0 1.59,0.75141 1.59,1.59 0,0.40914 -0.16641,0.79069 -0.48286,1.10714 -0.45545,0.45545 -1.06349,0.59494 -1.66536,0.38205 z M 122.22504,101.9344 c 0.17744,-0.0443 0.87848,-0.72489 4.00851,-3.891668 2.80214,-2.83504 3.80822,-3.88948 3.84995,-4.03497 0.0342,-0.11924 0.0565,-3.7638 0.0565,-9.23569 l 0,-9.038709 0.225,-0.0407 c 0.12375,-0.0224 0.44634,-0.14696 0.71686,-0.27687 0.91473,-0.43931 1.63713,-1.37988 1.81401,-2.36186 0.0874,-0.48505 0.0874,-7.44289 0,-7.92795 -0.10575,-0.58711 -0.47829,-1.28178 -0.9292,-1.73269 -1.30997,-1.30997 -3.42336,-1.30997 -4.73333,0 -0.45091,0.45091 -0.82345,1.14558 -0.92921,1.73269 -0.0874,0.48506 -0.0874,7.4429 0,7.92795 0.17708,0.98303 0.90039,1.92425 1.81401,2.36049 0.27052,0.12918 0.57961,0.25292 0.68686,0.27497 l 0.195,0.0401 -0.002,8.950239 -0.002,8.95023 -3.58445,3.6249 -3.58446,3.624898 -7.4839,-0.0417 -7.48389,-0.0417 0,0.63331 0,0.6333 7.575,-0.0375 c 4.16625,-0.0206 7.67177,-0.0617 7.79004,-0.0912 z m 6.91683,-31.076157 c -0.52924,-0.16347 -1.08165,-0.73885 -1.22773,-1.2788 -0.20867,-0.77123 0.20082,-1.61853 0.98252,-2.03304 0.36122,-0.19153 1.10544,-0.19153 1.46666,0 0.37646,0.19962 0.63211,0.44744 0.82989,0.80447 0.15438,0.2787 0.17678,0.37995 0.17678,0.79913 0,0.41918 -0.0224,0.52043 -0.17678,0.79913 -0.32523,0.5871 -0.83751,0.91676 -1.47322,0.94803 -0.2145,0.0106 -0.47465,-0.007 -0.57812,-0.0389 z m -48.141869,27.751759 0,-0.75 -0.63,0 -0.63,0 -6e-4,-2.295 c 0,-1.33852 -0.0252,-2.38465 -0.0601,-2.5101 -0.0486,-0.17503 -2.09928,-2.24639 -11.00966,-11.1208 l -10.94964,-10.905699 0,-2.08318 c 0,-1.21617 -0.0267,-2.23135 -0.0641,-2.4392 -0.10576,-0.5871 -0.4783,-1.28178 -0.92921,-1.73268 -1.30997,-1.30998 -3.42336,-1.30998 -4.73333,0 -0.45091,0.4509 -0.82345,1.14558 -0.9292,1.73268 -0.0874,0.48506 -0.0874,7.4429 0,7.92796 0.17719,0.98367 0.89741,1.92005 1.82048,2.36684 1.86964,0.90495 3.99007,-0.005 4.68752,-2.01082 0.0719,-0.20692 0.11571,-0.58304 0.14108,-1.21226 l 0.0368,-0.91225 10.425,10.382539 10.425,10.38254 0,2.21472 0,2.21471 -0.63,0 -0.63,0 0,0.75 0,0.75 1.83,0 1.83,0 0,-0.75 z M 53.901881,72.238243 c -0.52925,-0.16347 -1.08165,-0.73885 -1.22774,-1.2788 -0.20866,-0.77123 0.20082,-1.61853 0.98253,-2.03304 0.36122,-0.19153 1.10543,-0.19153 1.46666,0 0.37646,0.19962 0.63211,0.44744 0.82988,0.80447 0.15439,0.2787 0.17679,0.37995 0.17679,0.79913 0,0.41918 -0.0224,0.52043 -0.17679,0.79913 -0.32523,0.5871 -0.83751,0.91676 -1.47321,0.94803 -0.2145,0.0106 -0.47466,-0.007 -0.57812,-0.0389 z m 58.418109,27.031759 c 0,-0.0789 0.40505,-0.09 3.2854,-0.09 2.00627,0 3.36668,-0.0233 3.49417,-0.0599 0.29778,-0.0854 2.01918,-1.80593 2.10121,-2.10013 0.037,-0.13286 0.0587,-4.08101 0.0589,-10.74809 l 6e-4,-10.538099 0.315,-0.10227 c 0.90711,-0.2945 1.62805,-0.91162 2.02067,-1.72968 0.12983,-0.27052 0.26492,-0.65207 0.3002,-0.84788 0.0874,-0.48506 0.0874,-7.4429 0,-7.92796 -0.10576,-0.5871 -0.4783,-1.28178 -0.92921,-1.73268 -1.30997,-1.30998 -3.42336,-1.30998 -4.73333,0 -0.45091,0.4509 -0.82345,1.14558 -0.9292,1.73268 -0.0874,0.48506 -0.0874,7.4429 0,7.92796 0.10575,0.5871 0.47829,1.28178 0.9292,1.73268 0.4272,0.4272 1.15649,0.8332 1.63167,0.90835 l 0.255,0.0403 0,10.448269 0,10.44827 -0.7059,0.70406 -0.7059,0.70406 -3.1941,0 c -2.7992,0 -3.1941,-0.0111 -3.1941,-0.09 0,-0.078 -0.24334,-0.09 -1.83,-0.09 l -1.83,0 0,0.75 0,0.75 1.83,0 c 1.58666,0 1.83,-0.012 1.83,-0.09 z m 7.82189,-28.411759 c -0.52925,-0.16347 -1.08165,-0.73885 -1.22774,-1.2788 -0.20866,-0.77123 0.20082,-1.61853 0.98252,-2.03304 0.36123,-0.19153 1.10544,-0.19153 1.46667,0 0.37645,0.19962 0.6321,0.44744 0.82988,0.80447 0.15439,0.2787 0.17678,0.37995 0.17678,0.79913 0,0.41918 -0.0224,0.52043 -0.17678,0.79913 -0.32523,0.5871 -0.83751,0.91676 -1.47322,0.94803 -0.2145,0.0106 -0.47465,-0.007 -0.57811,-0.0389 z M 88.380001,93.750002 c 0,-1.78 -0.0209,-2.73 -0.06,-2.73 -0.0396,0 -0.0601,-2.15522 -0.0603,-6.345 0,-3.9567 -0.0224,-6.424039 -0.0591,-6.554999 -0.0465,-0.16601 -1.12722,-1.27825 -5.15967,-5.30987 l -5.1009,-5.09987 0,-1.23013 0,-1.23013 0.35064,-0.10303 c 0.74494,-0.21889 1.45183,-0.94583 1.70634,-1.75474 0.12994,-0.413 0.13285,-0.48975 0.13285,-3.51223 0,-3.02247 -0.003,-3.09923 -0.13285,-3.51223 -0.45212,-1.43697 -1.98528,-2.22111 -3.4551,-1.76713 -0.77818,0.24036 -1.48175,0.94549 -1.72312,1.72694 -0.11204,0.3633 -0.11876,0.56403 -0.11876,3.55242 0,2.9884 0.007,3.18912 0.11893,3.55243 0.23207,0.75133 0.94005,1.48133 1.65533,1.7068 l 0.32574,0.10268 0,1.47323 0,1.47323 5.16,5.16128 5.16,5.16129 0,6.254529 c 0,4.12968 -0.0204,6.25453 -0.06,6.25453 -0.0391,0 -0.06,0.95 -0.06,2.73 l 0,2.73 0.69,0 0.69,0 0,-2.73 z M 76.941881,61.618243 c -0.52925,-0.16347 -1.08165,-0.73885 -1.22774,-1.2788 -0.15391,-0.56886 0.0793,-1.32809 0.52931,-1.7232 0.38967,-0.34213 0.66222,-0.44416 1.18655,-0.44416 0.38163,0 0.53191,0.0275 0.73333,0.13433 0.37646,0.19962 0.6321,0.44743 0.82988,0.80446 0.15439,0.2787 0.17679,0.37995 0.17679,0.79913 0,0.41918 -0.0224,0.52043 -0.17679,0.79913 -0.32523,0.5871 -0.83751,0.91676 -1.47321,0.94803 -0.2145,0.0106 -0.47466,-0.007 -0.57812,-0.0389 z m 14.318125,32.131759 c 0,-1.78 -0.0209,-2.73 -0.06,-2.73 -0.0397,0 -0.0601,-3.04522 -0.0603,-9.015 0,-5.882569 -0.0214,-9.090789 -0.0609,-9.233099 -0.048,-0.17281 -0.37205,-0.52009 -1.56039,-1.6723 l -1.49981,-1.45419 0.0157,-2.21874 0.0157,-2.21874 0.28305,-0.10743 c 0.69708,-0.26457 1.32551,-0.94944 1.56242,-1.70274 0.13209,-0.42001 0.13453,-0.48372 0.13453,-3.51776 0,-3.02247 -0.003,-3.09923 -0.13285,-3.51223 -0.45212,-1.43697 -1.98528,-2.22111 -3.45511,-1.76713 -0.77817,0.24036 -1.48174,0.94549 -1.72311,1.72694 -0.11221,0.3633 -0.11893,0.56403 -0.11893,3.55242 0,2.9884 0.007,3.18912 0.11893,3.55243 0.2451,0.79355 0.94822,1.49087 1.74831,1.73389 l 0.41276,0.12537 -10e-4,2.40915 -0.001,2.40916 1.56331,1.53 1.56332,1.53 -0.002,8.924999 c -10e-4,5.90864 -0.0223,8.925 -0.062,8.925 -0.0391,0 -0.06,0.95 -0.06,2.73 l 0,2.73 0.69,0 0.690005,0 0,-2.73 z M 86.841881,61.618243 c -0.52925,-0.16347 -1.08165,-0.73885 -1.22774,-1.2788 -0.15391,-0.56886 0.0793,-1.32809 0.52931,-1.7232 0.38967,-0.34213 0.66222,-0.44416 1.18655,-0.44416 0.38163,0 0.53191,0.0275 0.73333,0.13433 0.37646,0.19962 0.6321,0.44743 0.82988,0.80446 0.15439,0.2787 0.17679,0.37995 0.17679,0.79913 0,0.41918 -0.0224,0.52043 -0.17679,0.79913 -0.32523,0.5871 -0.83751,0.91676 -1.47321,0.94803 -0.2145,0.0106 -0.47466,-0.007 -0.57812,-0.0389 z m 7.238125,32.131759 c 0,-1.78 -0.0209,-2.73 -0.06,-2.73 -0.0399,0 -0.0601,-6.12523 -0.0603,-18.254999 0,-11.66468 -0.0214,-18.33097 -0.0588,-18.46542 -0.0444,-0.1599 -0.40884,-0.55974 -1.51748,-1.665 l -1.459025,-1.45458 -5.15733,0 -5.15732,0 -4.87156,-4.875 -4.87155,-4.875 0.23765,-0.48608 c 0.63401,-1.29678 0.38196,-2.81103 -0.6376,-3.83059 -0.45091,-0.45091 -1.14558,-0.82344 -1.73269,-0.9292 -0.48505,-0.0874 -7.44289,-0.0874 -7.92795,0 -0.98198,0.17689 -1.92255,0.89929 -2.36185,1.81401 -0.12992,0.27052 -0.25451,0.59311 -0.27687,0.71686 l -0.0407,0.225 -4.13332,0 -4.13332,0 0,-1.26 0,-1.26 -2.85,0 -2.85,0 0,3.21 0,3.21 2.85,0 2.85,0 0,-1.38 0,-1.38 4.13523,0 4.13523,0 0.0401,0.195 c 0.0221,0.10725 0.14579,0.41634 0.27497,0.68686 0.43625,0.91362 1.37747,1.63694 2.36049,1.81401 0.48831,0.088 7.42127,0.0873 7.92695,-7.9e-4 0.20503,-0.0357 0.58524,-0.16935 0.84491,-0.29699 l 0.47212,-0.23207 4.98003,4.97689 c 3.90084,3.89838 5.02544,4.9899 5.1896,5.03698 0.13245,0.038 2.05313,0.0601 5.21942,0.0601 l 5.00985,0 1.185545,1.18444 1.18556,1.18444 0,18.16556 c 0,12.070369 -0.0201,18.165559 -0.06,18.165559 -0.0391,0 -0.06,0.95 -0.06,2.73 l 0,2.73 0.69,0 0.69,0 0,-2.73 z M 64.341881,41.218243 c -0.52925,-0.16347 -1.08165,-0.73885 -1.22774,-1.2788 -0.15391,-0.56886 0.0793,-1.32809 0.52931,-1.7232 0.38967,-0.34213 0.66222,-0.44416 1.18655,-0.44416 0.38163,0 0.53191,0.0275 0.73333,0.13433 0.37646,0.19962 0.6321,0.44743 0.82988,0.80446 0.15439,0.2787 0.17679,0.37995 0.17679,0.79913 0,0.41919 -0.0224,0.52043 -0.17679,0.79913 -0.32523,0.58711 -0.83751,0.91676 -1.47321,0.94803 -0.2145,0.0105 -0.47466,-0.007 -0.57812,-0.0389 z m 32.558115,52.531759 c 0,-1.78 -0.0209,-2.73 -0.06,-2.73 -0.0399,0 -0.06,-6.05811 -0.06,-18.054319 l 0,-18.05432 1.455,-1.41419 1.455,-1.41418 5.219994,-0.002 c 3.43714,-10e-4 5.29704,-0.0232 5.44557,-0.0645 0.44957,-0.12485 0.43238,0.0134 0.45138,-3.62864 l 0.017,-3.24736 0.31825,-0.10032 c 0.73213,-0.23079 1.42468,-0.95201 1.67332,-1.74261 0.13209,-0.42001 0.13452,-0.48372 0.13452,-3.51776 0,-3.02247 -0.003,-3.09923 -0.13284,-3.51222 -0.66332,-2.10821 -3.48102,-2.57561 -4.79192,-0.79488 -0.50464,0.6855 -0.50524,0.69064 -0.50524,4.3071 0,3.00347 0.006,3.18757 0.12065,3.55795 0.23632,0.76513 0.95869,1.49457 1.69405,1.71064 l 0.34514,0.10141 0,2.895 0,2.895 -5.22337,0 -5.223384,0 -1.74245,1.695 c -0.95835,0.93225 -1.76683,1.74048 -1.79663,1.79606 -0.0319,0.0595 -0.0542,7.60619 -0.0542,18.345 0,12.122629 -0.0201,18.243939 -0.06,18.243939 -0.0391,0 -0.06,0.95 -0.06,2.73 l 0,2.73 0.69,0 0.69,0 0,-2.73 z M 109.76188,41.518243 c -0.52925,-0.16347 -1.08165,-0.73885 -1.22774,-1.2788 -0.15391,-0.56886 0.0793,-1.32809 0.52931,-1.7232 0.38967,-0.34213 0.66222,-0.44416 1.18654,-0.44416 0.38163,0 0.53192,0.0275 0.73334,0.13433 0.37645,0.19962 0.6321,0.44743 0.82988,0.80446 0.15439,0.2787 0.17678,0.37995 0.17678,0.79913 0,0.41919 -0.0224,0.52043 -0.17678,0.79913 -0.32523,0.58711 -0.83751,0.91676 -1.47322,0.94803 -0.2145,0.0105 -0.47465,-0.007 -0.57811,-0.0389 z M 99.719996,93.750002 c 0,-1.78 -0.0209,-2.73 -0.06,-2.73 -0.0398,0 -0.06,-5.57815 -0.06,-16.614439 l 0,-16.61444 0.825004,-0.78417 0.825,-0.78417 8.93999,-0.002 c 6.02216,-10e-4 9.01362,-0.0222 9.16557,-0.0644 0.46326,-0.12865 0.43247,0.26062 0.45069,-5.69845 l 0.0162,-5.31711 0.31894,-0.10054 c 0.73284,-0.23101 1.42529,-0.95191 1.67403,-1.74283 0.13209,-0.42001 0.13452,-0.48372 0.13452,-3.51776 0,-3.02247 -0.003,-3.09922 -0.13284,-3.51222 -0.45213,-1.43698 -1.98528,-2.22112 -3.45511,-1.76713 -0.77817,0.24035 -1.48175,0.94549 -1.72311,1.72693 -0.11222,0.36331 -0.11894,0.56403 -0.11894,3.55243 0,3.00346 0.006,3.18757 0.12065,3.55795 0.23632,0.76513 0.95869,1.49457 1.69405,1.71064 l 0.34514,0.10141 0,4.965 0,4.965 -8.94233,0 -8.94232,0 -1.132684,1.08371 c -0.62297,0.59604 -1.14842,1.12475 -1.16767,1.1749 -0.0192,0.0502 -0.035,7.64899 -0.035,16.88629 0,11.156729 -0.0202,16.795099 -0.06,16.795099 -0.0391,0 -0.06,0.94999 -0.06,2.73 l 0,2.73 0.69,0 0.69,0 0,-2.73 z M 118.76188,41.518243 c -0.52925,-0.16347 -1.08165,-0.73885 -1.22774,-1.2788 -0.15391,-0.56886 0.0793,-1.32809 0.52931,-1.7232 0.38967,-0.34213 0.66222,-0.44416 1.18654,-0.44416 0.38163,0 0.53192,0.0275 0.73334,0.13433 0.37645,0.19962 0.6321,0.44743 0.82988,0.80446 0.15439,0.2787 0.17678,0.37995 0.17678,0.79913 0,0.41919 -0.0224,0.52043 -0.17678,0.79913 -0.32523,0.58711 -0.83751,0.91676 -1.47322,0.94803 -0.2145,0.0105 -0.47465,-0.007 -0.57811,-0.0389 z M 102.6,93.750002 l 0,-2.73 -0.69,0 -0.69,0 0,2.73 0,2.73 0.69,0 0.69,0 0,-2.73 z m -16.979999,-0.9 c 0,-1.58666 -0.012,-1.83 -0.09,-1.83 -0.0793,0 -0.09,-0.61848 -0.0903,-5.205 0,-3.28026 -0.0225,-5.28476 -0.0602,-5.42071 -0.0488,-0.17581 -2.02399,-2.171549 -10.67967,-10.790979 l -10.61983,-10.57529 0.001,-0.33901 0.001,-0.33901 0.40575,-0.19051 c 0.79538,-0.37346 1.33717,-1.12043 1.45027,-1.99949 0.0752,-0.58471 0.0752,-5.05529 0,-5.64 -0.11146,-0.86636 -0.64329,-1.60781 -1.43161,-1.99591 -0.37541,-0.1848 -0.4274,-0.19409 -1.08679,-0.19409 -0.65939,0 -0.71138,0.009 -1.08679,0.19409 -0.5035,0.24788 -0.96124,0.70562 -1.20912,1.20913 l -0.19409,0.39426 0,3.21252 0,3.21252 0.19279,0.39161 c 0.31262,0.63503 0.91358,1.16151 1.53437,1.34422 l 0.25284,0.0744 0.03,0.58439 0.03,0.58438 10.66792,10.62923 10.66791,10.629239 -0.003,5.115 c -0.003,4.50537 -0.0136,5.115 -0.0929,5.115 -0.078,0 -0.09,0.24333 -0.09,1.83 l 0,1.83 0.75,0 0.75,0 0,-1.83 z M 62.891781,54.859193 c -0.55675,-0.19693 -1.03178,-0.88256 -1.03178,-1.48919 0,-0.83859 0.75141,-1.59 1.59,-1.59 0.83859,0 1.59,0.75141 1.59,1.59 0,0.40914 -0.16641,0.79069 -0.48286,1.10714 -0.45545,0.45545 -1.06349,0.59494 -1.66536,0.38205 z m 42.588209,37.990809 c 0,-1.58666 -0.012,-1.83 -0.09,-1.83 -0.0795,0 -0.09,-0.85838 -0.09,-7.36543 l 0,-7.365429 1.56,-1.55914 c 1.03683,-1.03625 1.56,-1.52051 1.56,-1.44395 0,0.0634 0.10809,0.3385 0.2402,0.61143 0.99499,2.05565 3.74445,2.51121 5.36647,0.88918 0.45091,-0.4509 0.82345,-1.14558 0.92921,-1.73268 0.0874,-0.48506 0.0874,-7.4429 0,-7.92796 -0.10576,-0.5871 -0.4783,-1.28178 -0.92921,-1.73268 -1.30997,-1.30998 -3.42336,-1.30998 -4.73333,0 -0.45091,0.4509 -0.82345,1.14558 -0.92921,1.73268 -0.0401,0.22246 -0.0641,1.51623 -0.0641,3.44887 l 0,3.09285 -2.07,2.07312 -2.06999,2.07311 0,7.603019 c 0,6.71823 -0.0105,7.60301 -0.09,7.60301 -0.078,0 -0.09,0.24334 -0.09,1.83 l 0,1.83 0.75,0 0.74999,0 0,-1.83 z m 5.72189,-21.991759 c -0.52925,-0.16347 -1.08165,-0.73885 -1.22774,-1.2788 -0.20866,-0.77123 0.20082,-1.61853 0.98252,-2.03304 0.36123,-0.19153 1.10544,-0.19153 1.46667,0 0.37645,0.19962 0.6321,0.44744 0.82988,0.80447 0.15439,0.2787 0.17678,0.37995 0.17678,0.79913 0,0.41918 -0.0224,0.52043 -0.17678,0.79913 -0.32523,0.5871 -0.83751,0.91676 -1.47322,0.94803 -0.2145,0.0106 -0.47465,-0.007 -0.57811,-0.0389 z m 17.87054,-25.79717 c 0.79632,-0.24596 1.48493,-0.94257 1.74305,-1.76331 0.13209,-0.42001 0.13452,-0.48372 0.13452,-3.51776 0,-3.02247 -0.003,-3.09923 -0.13284,-3.51223 -0.45213,-1.43697 -1.98528,-2.22111 -3.45511,-1.76713 -0.77818,0.24036 -1.48175,0.94549 -1.72312,1.72694 -0.11221,0.3633 -0.11893,0.56403 -0.11893,3.55242 0,3.00347 0.006,3.18757 0.12064,3.55795 0.42809,1.386 1.98778,2.16912 3.43179,1.72312 z m -1.31055,-3.54283 c -0.52924,-0.16347 -1.08165,-0.73885 -1.22773,-1.2788 -0.15392,-0.56886 0.0793,-1.32809 0.5293,-1.7232 0.38967,-0.34213 0.66223,-0.44416 1.18655,-0.44416 0.38163,0 0.53192,0.0275 0.73333,0.13433 0.37646,0.19962 0.63211,0.44743 0.82989,0.80446 0.15438,0.2787 0.17678,0.37995 0.17678,0.79913 0,0.41919 -0.0224,0.52043 -0.17678,0.79913 -0.32523,0.58711 -0.83751,0.91676 -1.47322,0.94803 -0.2145,0.0105 -0.47465,-0.007 -0.57812,-0.0389 z m 10.31055,3.54283 c 0.79632,-0.24596 1.48493,-0.94257 1.74305,-1.76331 0.13209,-0.42001 0.13452,-0.48372 0.13452,-3.51776 0,-3.02247 -0.003,-3.09923 -0.13284,-3.51223 -0.45213,-1.43697 -1.98528,-2.22111 -3.45511,-1.76713 -0.77818,0.24036 -1.48175,0.94549 -1.72312,1.72694 -0.11221,0.3633 -0.11893,0.56403 -0.11893,3.55242 0,3.00347 0.006,3.18757 0.12064,3.55795 0.42809,1.386 1.98778,2.16912 3.43179,1.72312 z m -1.31055,-3.54283 c -0.52924,-0.16347 -1.08165,-0.73885 -1.22773,-1.2788 -0.15392,-0.56886 0.0793,-1.32809 0.5293,-1.7232 0.38967,-0.34213 0.66223,-0.44416 1.18655,-0.44416 0.38163,0 0.53192,0.0275 0.73333,0.13433 0.37646,0.19962 0.63211,0.44743 0.82989,0.80446 0.15438,0.2787 0.17678,0.37995 0.17678,0.79913 0,0.41919 -0.0224,0.52043 -0.17678,0.79913 -0.32523,0.58711 -0.83751,0.91676 -1.47322,0.94803 -0.2145,0.0105 -0.47465,-0.007 -0.57812,-0.0389 z m 10.31055,3.54283 c 0.79632,-0.24596 1.48492,-0.94257 1.74304,-1.76331 0.13209,-0.42001 0.13453,-0.48372 0.13453,-3.51776 0,-3.02247 -0.003,-3.09923 -0.13285,-3.51223 -0.45212,-1.43697 -1.98528,-2.22111 -3.4551,-1.76713 -0.77818,0.24036 -1.48175,0.94549 -1.72312,1.72694 -0.11221,0.3633 -0.11893,0.56403 -0.11893,3.55242 0,3.00347 0.006,3.18757 0.12064,3.55795 0.42809,1.386 1.98778,2.16912 3.43179,1.72312 z m -1.31055,-3.54283 c -0.52925,-0.16347 -1.08165,-0.73885 -1.22774,-1.2788 -0.15391,-0.56886 0.0793,-1.32809 0.52931,-1.7232 0.38967,-0.34213 0.66223,-0.44416 1.18655,-0.44416 0.38163,0 0.53192,0.0275 0.73333,0.13433 0.37646,0.19962 0.63211,0.44743 0.82989,0.80446 0.15438,0.2787 0.17678,0.37995 0.17678,0.79913 0,0.41919 -0.0224,0.52043 -0.17678,0.79913 -0.32523,0.58711 -0.83751,0.91676 -1.47322,0.94803 -0.2145,0.0105 -0.47465,-0.007 -0.57812,-0.0389 z m 10.31055,3.54283 c 0.79632,-0.24596 1.48492,-0.94257 1.74304,-1.76331 0.13209,-0.42001 0.13453,-0.48372 0.13453,-3.51776 0,-3.02247 -0.003,-3.09923 -0.13285,-3.51223 -0.45212,-1.43697 -1.98528,-2.22111 -3.4551,-1.76713 -0.77818,0.24036 -1.48175,0.94549 -1.72312,1.72694 -0.11221,0.3633 -0.11893,0.56403 -0.11893,3.55242 0,3.00347 0.006,3.18757 0.12064,3.55795 0.42809,1.386 1.98778,2.16912 3.43179,1.72312 z m -1.31055,-3.54283 c -0.52925,-0.16347 -1.08165,-0.73885 -1.22774,-1.2788 -0.15391,-0.56886 0.0793,-1.32809 0.52931,-1.7232 0.38967,-0.34213 0.66223,-0.44416 1.18655,-0.44416 0.38163,0 0.53192,0.0275 0.73333,0.13433 0.37646,0.19962 0.63211,0.44743 0.82989,0.80446 0.15438,0.2787 0.17678,0.37995 0.17678,0.79913 0,0.41919 -0.0224,0.52043 -0.17678,0.79913 -0.32523,0.58711 -0.83751,0.91676 -1.47322,0.94803 -0.2145,0.0105 -0.47465,-0.007 -0.57812,-0.0389 z"
     id="path4082"
     inkscape:connector-curvature="0"
     inkscape:export-xdpi="1000"
     inkscape:export-ydpi="1000" />
  <text
     xml:space="preserve"
     style="font-style:normal;font-weight:normal;font-size:40px;line-height:125%;font-family:sans-serif;letter-spacing:0px;word-spacing:0px;fill:#ffffff;fill-opacity:1;stroke:none;stroke-width:1px;stroke-linecap:butt;stroke-linejoin:miter;stroke-opacity:1"
     x="79.454155"
     y="167.69637"
     id="text3425"
     sodipodi:linespacing="125%"
     inkscape:export-xdpi="1000"
     inkscape:export-ydpi="1000"><tspan
       sodipodi:role="line"
       id="tspan3427"
       x="79.454155"
       y="167.69637"
       style="font-style:normal;font-variant:normal;font-weight:normal;font-stretch:normal;font-size:2.5px;line-height:125%;font-family:sans-serif;-inkscape-font-specification:'sans-serif, Normal';text-align:start;writing-mode:lr-tb;text-anchor:start">M9</tspan></text>
  <text
     xml:space="preserve"
     style="font-style:normal;font-weight:normal;font-size:40px;line-height:125%;font-family:sans-serif;letter-spacing:0px;word-spacing:0px;fill:#ffffff;fill-opacity:1;stroke:none;stroke-width:1px;stroke-linecap:butt;stroke-linejoin:miter;stroke-opacity:1"
     x="87.678734"
     y="167.69637"
     id="text3425-6"
     sodipodi:linespacing="125%"
     inkscape:export-xdpi="1000"
     inkscape:export-ydpi="1000"><tspan
       sodipodi:role="line"
       id="tspan3427-4"
       x="87.678734"
       y="167.69637"
       style="font-style:normal;font-variant:normal;font-weight:normal;font-stretch:normal;font-size:2.5px;line-height:125%;font-family:sans-serif;-inkscape-font-specification:'sans-serif, Normal';text-align:start;writing-mode:lr-tb;text-anchor:start">M10</tspan></text>
  <text
     xml:space="preserve"
     style="font-style:normal;font-weight:normal;font-size:40px;line-height:125%;font-family:sans-serif;letter-spacing:0px;word-spacing:0px;fill:#ffffff;fill-opacity:1;stroke:none;stroke-width:1px;stroke-linecap:butt;stroke-linejoin:miter;stroke-opacity:1"
     x="96.606728"
     y="167.69759"
     id="text3425-6-3"
     sodipodi:linespacing="125%"
     inkscape:export-xdpi="1000"
     inkscape:export-ydpi="1000"><tspan
       sodipodi:role="line"
       id="tspan3427-4-8"
       x="96.606728"
       y="167.69759"
       style="font-style:normal;font-variant:normal;font-weight:normal;font-stretch:normal;font-size:2.5px;line-height:125%;font-family:sans-serif;-inkscape-font-specification:'sans-serif, Normal';text-align:start;writing-mode:lr-tb;text-anchor:start">M11</tspan></text>
  <text
     xml:space="preserve"
     style="font-style:normal;font-weight:normal;font-size:40px;line-height:125%;font-family:sans-serif;letter-spacing:0px;word-spacing:0px;fill:#ffffff;fill-opacity:1;stroke:none;stroke-width:1px;stroke-linecap:butt;stroke-linejoin:miter;stroke-opacity:1"
     x="109.18666"
     y="135.56544"
     id="text3425-6-3-3"
     sodipodi:linespacing="125%"
     inkscape:export-xdpi="1000"
     inkscape:export-ydpi="1000"><tspan
       sodipodi:role="line"
       id="tspan3427-4-8-3"
       x="109.18666"
       y="135.56544"
       style="font-style:normal;font-variant:normal;font-weight:normal;font-stretch:normal;font-size:2.5px;line-height:125%;font-family:sans-serif;-inkscape-font-specification:'sans-serif, Normal';text-align:start;writing-mode:lr-tb;text-anchor:start">M12</tspan></text>
  <text
     xml:space="preserve"
     style="font-style:normal;font-weight:normal;font-size:40px;line-height:125%;font-family:sans-serif;letter-spacing:0px;word-spacing:0px;fill:#ffffff;fill-opacity:1;stroke:none;stroke-width:1px;stroke-linecap:butt;stroke-linejoin:miter;stroke-opacity:1"
     x="48.556602"
     y="63.800411"
     id="text3425-6-3-3-8"
     sodipodi:linespacing="125%"
     inkscape:export-xdpi="1000"
     inkscape:export-ydpi="1000"><tspan
       sodipodi:role="line"
       id="tspan3427-4-8-3-8"
       x="48.556602"
       y="63.800411"
       style="font-style:normal;font-variant:normal;font-weight:normal;font-stretch:normal;font-size:2.5px;line-height:125%;font-family:sans-serif;-inkscape-font-specification:'sans-serif, Normal';text-align:start;writing-mode:lr-tb;text-anchor:start">M3</tspan></text>
  <text
     xml:space="preserve"
     style="font-style:normal;font-weight:normal;font-size:40px;line-height:125%;font-family:sans-serif;letter-spacing:0px;word-spacing:0px;fill:#ffffff;fill-opacity:1;stroke:none;stroke-width:1px;stroke-linecap:butt;stroke-linejoin:miter;stroke-opacity:1"
     x="43.33989"
     y="167.69759"
     id="text3425-4"
     sodipodi:linespacing="125%"
     inkscape:export-xdpi="1000"
     inkscape:export-ydpi="1000"><tspan
       sodipodi:role="line"
       id="tspan3427-2"
       x="43.33989"
       y="167.69759"
       style="font-style:normal;font-variant:normal;font-weight:normal;font-stretch:normal;font-size:2.5px;line-height:125%;font-family:sans-serif;-inkscape-font-specification:'sans-serif, Normal';text-align:start;writing-mode:lr-tb;text-anchor:start">RP</tspan></text>
  <text
     xml:space="preserve"
     style="font-style:normal;font-weight:normal;font-size:40px;line-height:125%;font-family:sans-serif;letter-spacing:0px;word-spacing:0px;fill:#ffffff;fill-opacity:1;stroke:none;stroke-width:1px;stroke-linecap:butt;stroke-linejoin:miter;stroke-opacity:1"
     x="52.945007"
     y="167.69759"
     id="text3425-4-6"
     sodipodi:linespacing="125%"
     inkscape:export-xdpi="1000"
     inkscape:export-ydpi="1000"><tspan
       sodipodi:role="line"
       id="tspan3427-2-6"
       x="52.945007"
       y="167.69759"
       style="font-style:normal;font-variant:normal;font-weight:normal;font-stretch:normal;font-size:2.5px;line-height:125%;font-family:sans-serif;-inkscape-font-specification:'sans-serif, Normal';text-align:start;writing-mode:lr-tb;text-anchor:start">RY</tspan></text>
  <text
     xml:space="preserve"
     style="font-style:normal;font-weight:normal;font-size:40px;line-height:125%;font-family:sans-serif;letter-spacing:0px;word-spacing:0px;fill:#ffffff;fill-opacity:1;stroke:none;stroke-width:1px;stroke-linecap:butt;stroke-linejoin:miter;stroke-opacity:1"
     x="61.880981"
     y="167.69759"
     id="text3425-4-9"
     sodipodi:linespacing="125%"
     inkscape:export-xdpi="1000"
     inkscape:export-ydpi="1000"><tspan
       sodipodi:role="line"
       id="tspan3427-2-2"
       x="61.880981"
       y="167.69759"
       style="font-style:normal;font-variant:normal;font-weight:normal;font-stretch:normal;font-size:2.5px;line-height:125%;font-family:sans-serif;-inkscape-font-specification:'sans-serif, Normal';text-align:start;writing-mode:lr-tb;text-anchor:start">RA1</tspan></text>
  <text
     xml:space="preserve"
     style="font-style:normal;font-weight:normal;font-size:40px;line-height:125%;font-family:sans-serif;letter-spacing:0px;word-spacing:0px;fill:#ffffff;fill-opacity:1;stroke:none;stroke-width:1px;stroke-linecap:butt;stroke-linejoin:miter;stroke-opacity:1"
     x="70.816948"
     y="167.71407"
     id="text3425-4-5"
     sodipodi:linespacing="125%"
     inkscape:export-xdpi="1000"
     inkscape:export-ydpi="1000"><tspan
       sodipodi:role="line"
       id="tspan3427-2-3"
       x="70.816948"
       y="167.71407"
       style="font-style:normal;font-variant:normal;font-weight:normal;font-stretch:normal;font-size:2.5px;line-height:125%;font-family:sans-serif;-inkscape-font-specification:'sans-serif, Normal';text-align:start;writing-mode:lr-tb;text-anchor:start">RA2</tspan></text>
  <text
     xml:space="preserve"
     style="font-style:normal;font-weight:normal;font-size:40px;line-height:125%;font-family:sans-serif;letter-spacing:0px;word-spacing:0px;fill:#ffffff;fill-opacity:1;stroke:none;stroke-width:1px;stroke-linecap:butt;stroke-linejoin:miter;stroke-opacity:1"
     x="137.8259"
     y="82.215843"
     id="text3425-6-3-3-0"
     sodipodi:linespacing="125%"
     inkscape:export-xdpi="1000"
     inkscape:export-ydpi="1000"><tspan
       sodipodi:role="line"
       id="tspan3427-4-8-3-6"
       x="137.8259"
       y="82.215843"
       style="font-style:normal;font-variant:normal;font-weight:normal;font-stretch:normal;font-size:2.5px;line-height:125%;font-family:sans-serif;-inkscape-font-specification:'sans-serif, Normal';text-align:start;writing-mode:lr-tb;text-anchor:start">GND</tspan></text>
  <text
     xml:space="preserve"
     style="font-style:normal;font-weight:normal;font-size:40px;line-height:125%;font-family:sans-serif;letter-spacing:0px;word-spacing:0px;fill:#ffffff;fill-opacity:1;stroke:none;stroke-width:1px;stroke-linecap:butt;stroke-linejoin:miter;stroke-opacity:1"
     x="156.81195"
     y="82.199364"
     id="text3425-6-3-3-0-1-7"
     sodipodi:linespacing="125%"
     inkscape:export-xdpi="1000"
     inkscape:export-ydpi="1000"><tspan
       sodipodi:role="line"
       id="tspan3427-4-8-3-6-1-5"
       x="156.81195"
       y="82.199364"
       style="font-style:normal;font-variant:normal;font-weight:normal;font-stretch:normal;font-size:2.5px;line-height:125%;font-family:sans-serif;-inkscape-font-specification:'sans-serif, Normal';text-align:start;writing-mode:lr-tb;text-anchor:start">5V</tspan></text>
  <text
     xml:space="preserve"
     style="font-style:normal;font-weight:normal;font-size:40px;line-height:125%;font-family:sans-serif;letter-spacing:0px;word-spacing:0px;fill:#ffffff;fill-opacity:1;stroke:none;stroke-width:1px;stroke-linecap:butt;stroke-linejoin:miter;stroke-opacity:1"
     x="137.8259"
     y="99.179161"
     id="text3425-6-3-3-0-7"
     sodipodi:linespacing="125%"
     inkscape:export-xdpi="1000"
     inkscape:export-ydpi="1000"><tspan
       sodipodi:role="line"
       id="tspan3427-4-8-3-6-4"
       x="137.8259"
       y="99.179161"
       style="font-style:normal;font-variant:normal;font-weight:normal;font-stretch:normal;font-size:2.5px;line-height:125%;font-family:sans-serif;-inkscape-font-specification:'sans-serif, Normal';text-align:start;writing-mode:lr-tb;text-anchor:start">GND</tspan></text>
  <text
     xml:space="preserve"
     style="font-style:normal;font-weight:normal;font-size:40px;line-height:125%;font-family:sans-serif;letter-spacing:0px;word-spacing:0px;fill:#ffffff;fill-opacity:1;stroke:none;stroke-width:1px;stroke-linecap:butt;stroke-linejoin:miter;stroke-opacity:1"
     x="156.81195"
     y="99.162682"
     id="text3425-6-3-3-0-1-7-2"
     sodipodi:linespacing="125%"
     inkscape:export-xdpi="1000"
     inkscape:export-ydpi="1000"><tspan
       sodipodi:role="line"
       id="tspan3427-4-8-3-6-1-5-3"
       x="156.81195"
       y="99.162682"
       style="font-style:normal;font-variant:normal;font-weight:normal;font-stretch:normal;font-size:2.5px;line-height:125%;font-family:sans-serif;-inkscape-font-specification:'sans-serif, Normal';text-align:start;writing-mode:lr-tb;text-anchor:start">5V</tspan></text>
  <text
     xml:space="preserve"
     style="font-style:normal;font-weight:normal;font-size:40px;line-height:125%;font-family:sans-serif;letter-spacing:0px;word-spacing:0px;fill:#ffffff;fill-opacity:1;stroke:none;stroke-width:1px;stroke-linecap:butt;stroke-linejoin:miter;stroke-opacity:1"
     x="156.81195"
     y="63.83321"
     id="text3425-6-3-3-0-1-7-9"
     sodipodi:linespacing="125%"
     inkscape:export-xdpi="1000"
     inkscape:export-ydpi="1000"><tspan
       sodipodi:role="line"
       id="tspan3427-4-8-3-6-1-5-9"
       x="156.81195"
       y="63.83321"
       style="font-style:normal;font-variant:normal;font-weight:normal;font-stretch:normal;font-size:2.5px;line-height:125%;font-family:sans-serif;-inkscape-font-specification:'sans-serif, Normal';text-align:start;writing-mode:lr-tb;text-anchor:start">5V</tspan></text>
  <text
     xml:space="preserve"
     style="font-style:normal;font-weight:normal;font-size:40px;line-height:125%;font-family:sans-serif;letter-spacing:0px;word-spacing:0px;fill:#ffffff;fill-opacity:1;stroke:none;stroke-width:1px;stroke-linecap:butt;stroke-linejoin:miter;stroke-opacity:1"
     x="137.8259"
     y="63.849689"
     id="text3425-6-3-3-0-3"
     sodipodi:linespacing="125%"
     inkscape:export-xdpi="1000"
     inkscape:export-ydpi="1000"><tspan
       sodipodi:role="line"
       id="tspan3427-4-8-3-6-8"
       x="137.8259"
       y="63.849689"
       style="font-style:normal;font-variant:normal;font-weight:normal;font-stretch:normal;font-size:2.5px;line-height:125%;font-family:sans-serif;-inkscape-font-specification:'sans-serif, Normal';text-align:start;writing-mode:lr-tb;text-anchor:start">GND</tspan></text>
  <text
     xml:space="preserve"
     style="font-style:normal;font-weight:normal;font-size:40px;line-height:125%;font-family:sans-serif;letter-spacing:0px;word-spacing:0px;fill:#ffffff;fill-opacity:1;stroke:none;stroke-width:1px;stroke-linecap:butt;stroke-linejoin:miter;stroke-opacity:1"
     x="87.36879"
     y="33.661915"
     id="text3425-6-3-3-0-1-7-9-8"
     sodipodi:linespacing="125%"
     inkscape:export-xdpi="1000"
     inkscape:export-ydpi="1000"><tspan
       sodipodi:role="line"
       id="tspan3427-4-8-3-6-1-5-9-7"
       x="87.36879"
       y="33.661915"
       style="font-style:normal;font-variant:normal;font-weight:normal;font-stretch:normal;font-size:2.5px;line-height:125%;font-family:sans-serif;-inkscape-font-specification:'sans-serif, Normal';text-align:start;writing-mode:lr-tb;text-anchor:start">5V</tspan></text>
  <text
     xml:space="preserve"
     style="font-style:normal;font-weight:normal;font-size:40px;line-height:125%;font-family:sans-serif;letter-spacing:0px;word-spacing:0px;fill:#ffffff;fill-opacity:1;stroke:none;stroke-width:1px;stroke-linecap:butt;stroke-linejoin:miter;stroke-opacity:1"
     x="98.544319"
     y="33.678394"
     id="text3425-6-3-3-0-3-7"
     sodipodi:linespacing="125%"
     inkscape:export-xdpi="1000"
     inkscape:export-ydpi="1000"><tspan
       sodipodi:role="line"
       id="tspan3427-4-8-3-6-8-3"
       x="98.544319"
       y="33.678394"
       style="font-style:normal;font-variant:normal;font-weight:normal;font-stretch:normal;font-size:2.5px;line-height:125%;font-family:sans-serif;-inkscape-font-specification:'sans-serif, Normal';text-align:start;writing-mode:lr-tb;text-anchor:start">GND</tspan></text>
  <text
     xml:space="preserve"
     style="font-style:normal;font-weight:normal;font-size:40px;line-height:125%;font-family:sans-serif;letter-spacing:0px;word-spacing:0px;fill:#ffffff;fill-opacity:1;stroke:none;stroke-width:1px;stroke-linecap:butt;stroke-linejoin:miter;stroke-opacity:1"
     x="107.47475"
     y="33.678394"
     id="text3425-6-3-3-0-3-7-0"
     sodipodi:linespacing="125%"
     inkscape:export-xdpi="1000"
     inkscape:export-ydpi="1000"><tspan
       sodipodi:role="line"
       id="tspan3427-4-8-3-6-8-3-5"
       x="107.47475"
       y="33.678394"
       style="font-style:normal;font-variant:normal;font-weight:normal;font-stretch:normal;font-size:2.5px;line-height:125%;font-family:sans-serif;-inkscape-font-specification:'sans-serif, Normal';text-align:start;writing-mode:lr-tb;text-anchor:start">SCL</tspan></text>
  <text
     xml:space="preserve"
     style="font-style:normal;font-weight:normal;font-size:40px;line-height:125%;font-family:sans-serif;letter-spacing:0px;word-spacing:0px;fill:#ffffff;fill-opacity:1;stroke:none;stroke-width:1px;stroke-linecap:butt;stroke-linejoin:miter;stroke-opacity:1"
     x="116.26211"
     y="33.678394"
     id="text3425-6-3-3-0-3-7-1"
     sodipodi:linespacing="125%"
     inkscape:export-xdpi="1000"
     inkscape:export-ydpi="1000"><tspan
       sodipodi:role="line"
       id="tspan3427-4-8-3-6-8-3-1"
       x="116.26211"
       y="33.678394"
       style="font-style:normal;font-variant:normal;font-weight:normal;font-stretch:normal;font-size:2.5px;line-height:125%;font-family:sans-serif;-inkscape-font-specification:'sans-serif, Normal';text-align:start;writing-mode:lr-tb;text-anchor:start">SDA</tspan></text>
  <text
     xml:space="preserve"
     style="font-style:normal;font-weight:normal;font-size:40px;line-height:125%;font-family:sans-serif;letter-spacing:0px;word-spacing:0px;fill:#ffffff;fill-opacity:1;stroke:none;stroke-width:1px;stroke-linecap:butt;stroke-linejoin:miter;stroke-opacity:1"
     x="62.352684"
     y="35.649506"
     id="text3425-6-3-3-0-3-7-7"
     sodipodi:linespacing="125%"
     inkscape:export-xdpi="1000"
     inkscape:export-ydpi="1000"><tspan
       sodipodi:role="line"
       id="tspan3427-4-8-3-6-8-3-6"
       x="62.352684"
       y="35.649506"
       style="font-style:normal;font-variant:normal;font-weight:normal;font-stretch:normal;font-size:2.5px;line-height:125%;font-family:sans-serif;-inkscape-font-specification:'sans-serif, Normal';text-align:start;writing-mode:lr-tb;text-anchor:start">RST</tspan></text>
  <text
     xml:space="preserve"
     style="font-style:normal;font-weight:normal;font-size:40px;line-height:125%;font-family:sans-serif;letter-spacing:0px;word-spacing:0px;fill:#ffffff;fill-opacity:1;stroke:none;stroke-width:1px;stroke-linecap:butt;stroke-linejoin:miter;stroke-opacity:1"
     x="70.670326"
     y="60.563187"
     id="text3425-6-3-3-0-3-7-7-4"
     sodipodi:linespacing="125%"
     inkscape:export-xdpi="1000"
     inkscape:export-ydpi="1000"><tspan
       sodipodi:role="line"
       id="tspan3427-4-8-3-6-8-3-6-9"
       x="70.670326"
       y="60.563187"
       style="font-style:normal;font-variant:normal;font-weight:normal;font-stretch:normal;font-size:2.5px;line-height:125%;font-family:sans-serif;-inkscape-font-specification:'sans-serif, Normal';text-align:start;writing-mode:lr-tb;text-anchor:start">TX</tspan></text>
  <text
     xml:space="preserve"
     style="font-style:normal;font-weight:normal;font-size:40px;line-height:125%;font-family:sans-serif;letter-spacing:0px;word-spacing:0px;fill:#ffffff;fill-opacity:1;stroke:none;stroke-width:1px;stroke-linecap:butt;stroke-linejoin:miter;stroke-opacity:1"
     x="80.726334"
     y="60.563187"
     id="text3425-6-3-3-0-3-7-7-41"
     sodipodi:linespacing="125%"
     inkscape:export-xdpi="1000"
     inkscape:export-ydpi="1000"><tspan
       sodipodi:role="line"
       id="tspan3427-4-8-3-6-8-3-6-3"
       x="80.726334"
       y="60.563187"
       style="font-style:normal;font-variant:normal;font-weight:normal;font-stretch:normal;font-size:2.5px;line-height:125%;font-family:sans-serif;-inkscape-font-specification:'sans-serif, Normal';text-align:start;writing-mode:lr-tb;text-anchor:start">RX</tspan></text>
  <text
     xml:space="preserve"
     style="font-style:normal;font-weight:normal;font-size:40px;line-height:125%;font-family:sans-serif;letter-spacing:0px;word-spacing:0px;fill:#ffffff;fill-opacity:1;stroke:none;stroke-width:1px;stroke-linecap:butt;stroke-linejoin:miter;stroke-opacity:1"
     x="52.737579"
     y="47.221226"
     id="text3425-6-3-3-8-9"
     sodipodi:linespacing="125%"
     inkscape:export-xdpi="1000"
     inkscape:export-ydpi="1000"><tspan
       sodipodi:role="line"
       id="tspan3427-4-8-3-8-8"
       x="52.737579"
       y="47.221226"
       style="font-style:normal;font-variant:normal;font-weight:normal;font-stretch:normal;font-size:2.5px;line-height:125%;font-family:sans-serif;-inkscape-font-specification:'sans-serif, Normal';text-align:start;writing-mode:lr-tb;text-anchor:start">RR</tspan></text>
  <text
     xml:space="preserve"
     style="font-style:normal;font-weight:normal;font-size:40px;line-height:125%;font-family:sans-serif;letter-spacing:0px;word-spacing:0px;fill:#ffffff;fill-opacity:1;stroke:none;stroke-width:1px;stroke-linecap:butt;stroke-linejoin:miter;stroke-opacity:1"
     x="61.814423"
     y="47.221226"
     id="text3425-6-3-3-8-0"
     sodipodi:linespacing="125%"
     inkscape:export-xdpi="1000"
     inkscape:export-ydpi="1000"><tspan
       sodipodi:role="line"
       id="tspan3427-4-8-3-8-7"
       x="61.814423"
       y="47.221226"
       style="font-style:normal;font-variant:normal;font-weight:normal;font-stretch:normal;font-size:2.5px;line-height:125%;font-family:sans-serif;-inkscape-font-specification:'sans-serif, Normal';text-align:start;writing-mode:lr-tb;text-anchor:start">RT</tspan></text>
  <text
     xml:space="preserve"
     style="font-style:normal;font-weight:normal;font-size:40px;line-height:125%;font-family:sans-serif;letter-spacing:0px;word-spacing:0px;fill:#ffffff;fill-opacity:1;stroke:none;stroke-width:1px;stroke-linecap:butt;stroke-linejoin:miter;stroke-opacity:1"
     x="127.3428"
     y="60.894703"
     id="text3425-6-3-9"
     sodipodi:linespacing="125%"
     inkscape:export-xdpi="1000"
     inkscape:export-ydpi="1000"><tspan
       sodipodi:role="line"
       id="tspan3427-4-8-1"
       x="127.3428"
       y="60.894703"
       style="font-style:normal;font-variant:normal;font-weight:normal;font-stretch:normal;font-size:2.5px;line-height:125%;font-family:sans-serif;-inkscape-font-specification:'sans-serif, Normal';text-align:start;writing-mode:lr-tb;text-anchor:start">MA0</tspan></text>
  <text
     xml:space="preserve"
     style="font-style:normal;font-weight:normal;font-size:40px;line-height:125%;font-family:sans-serif;letter-spacing:0px;word-spacing:0px;fill:#ffffff;fill-opacity:1;stroke:none;stroke-width:1px;stroke-linecap:butt;stroke-linejoin:miter;stroke-opacity:1"
     x="118.12315"
     y="60.895924"
     id="text3425-6-3-4"
     sodipodi:linespacing="125%"
     inkscape:export-xdpi="1000"
     inkscape:export-ydpi="1000"><tspan
       sodipodi:role="line"
       id="tspan3427-4-8-7"
       x="118.12315"
       y="60.895924"
       style="font-style:normal;font-variant:normal;font-weight:normal;font-stretch:normal;font-size:2.5px;line-height:125%;font-family:sans-serif;-inkscape-font-specification:'sans-serif, Normal';text-align:start;writing-mode:lr-tb;text-anchor:start">MA1</tspan></text>
  <text
     xml:space="preserve"
     style="font-style:normal;font-weight:normal;font-size:40px;line-height:125%;font-family:sans-serif;letter-spacing:0px;word-spacing:0px;fill:#ffffff;fill-opacity:1;stroke:none;stroke-width:1px;stroke-linecap:butt;stroke-linejoin:miter;stroke-opacity:1"
     x="109.18719"
     y="60.912403"
     id="text3425-6-3-99"
     sodipodi:linespacing="125%"
     inkscape:export-xdpi="1000"
     inkscape:export-ydpi="1000"><tspan
       sodipodi:role="line"
       id="tspan3427-4-8-9"
       x="109.18719"
       y="60.912403"
       style="font-style:normal;font-variant:normal;font-weight:normal;font-stretch:normal;font-size:2.5px;line-height:125%;font-family:sans-serif;-inkscape-font-specification:'sans-serif, Normal';text-align:start;writing-mode:lr-tb;text-anchor:start">MA2</tspan></text>
  <text
     xml:space="preserve"
     style="font-style:normal;font-weight:normal;font-size:40px;line-height:125%;font-family:sans-serif;letter-spacing:0px;word-spacing:0px;fill:#ffffff;fill-opacity:1;stroke:none;stroke-width:1px;stroke-linecap:butt;stroke-linejoin:miter;stroke-opacity:1"
     x="125.15071"
     y="139.95459"
     id="text3425-6-3-3-6"
     sodipodi:linespacing="125%"
     inkscape:export-xdpi="1000"
     inkscape:export-ydpi="1000"><tspan
       sodipodi:role="line"
       id="tspan3427-4-8-3-0"
       x="125.15071"
       y="139.95459"
       style="font-style:normal;font-variant:normal;font-weight:normal;font-stretch:normal;font-size:2.5px;line-height:125%;font-family:sans-serif;-inkscape-font-specification:'sans-serif, Normal';text-align:start;writing-mode:lr-tb;text-anchor:start">MISO</tspan></text>
  <text
     xml:space="preserve"
     style="font-style:normal;font-weight:normal;font-size:40px;line-height:125%;font-family:sans-serif;letter-spacing:0px;word-spacing:0px;fill:#ffffff;fill-opacity:1;stroke:none;stroke-width:1px;stroke-linecap:butt;stroke-linejoin:miter;stroke-opacity:1"
     x="125.2032"
     y="148.8549"
     id="text3425-6-3-3-83"
     sodipodi:linespacing="125%"
     inkscape:export-xdpi="1000"
     inkscape:export-ydpi="1000"><tspan
       sodipodi:role="line"
       id="tspan3427-4-8-3-9"
       x="125.2032"
       y="148.8549"
       style="font-style:normal;font-variant:normal;font-weight:normal;font-stretch:normal;font-size:2.5px;line-height:125%;font-family:sans-serif;-inkscape-font-specification:'sans-serif, Normal';text-align:start;writing-mode:lr-tb;text-anchor:start">MOSI</tspan></text>
  <text
     xml:space="preserve"
     style="font-style:normal;font-weight:normal;font-size:40px;line-height:125%;font-family:sans-serif;letter-spacing:0px;word-spacing:0px;fill:#ffffff;fill-opacity:1;stroke:none;stroke-width:1px;stroke-linecap:butt;stroke-linejoin:miter;stroke-opacity:1"
     x="125.83247"
     y="158.03627"
     id="text3425-6-3-3-09"
     sodipodi:linespacing="125%"
     inkscape:export-xdpi="1000"
     inkscape:export-ydpi="1000"><tspan
       sodipodi:role="line"
       id="tspan3427-4-8-3-4"
       x="125.83247"
       y="158.03627"
       style="font-style:normal;font-variant:normal;font-weight:normal;font-stretch:normal;font-size:2.5px;line-height:125%;font-family:sans-serif;-inkscape-font-specification:'sans-serif, Normal';text-align:start;writing-mode:lr-tb;text-anchor:start">SCK</tspan></text>
</svg>
