<?xml version="1.0" encoding="UTF-8" standalone="no"?>
<!-- Created with Inkscape (http://www.inkscape.org/) -->

<svg
   xmlns:dc="http://purl.org/dc/elements/1.1/"
   xmlns:cc="http://creativecommons.org/ns#"
   xmlns:rdf="http://www.w3.org/1999/02/22-rdf-syntax-ns#"
   xmlns:svg="http://www.w3.org/2000/svg"
   xmlns="http://www.w3.org/2000/svg"
   xmlns:sodipodi="http://sodipodi.sourceforge.net/DTD/sodipodi-0.dtd"
   xmlns:inkscape="http://www.inkscape.org/namespaces/inkscape"
   id="svg2"
   version="1.1"
   inkscape:version="0.91 r"
   width="191.97"
   height="189.36"
   viewBox="0 0 191.97 189.36"
   sodipodi:docname="satshakit_fc_power.svg">
  <metadata
     id="metadata8">
    <rdf:RDF>
      <cc:Work
         rdf:about="">
        <dc:format>image/svg+xml</dc:format>
        <dc:type
           rdf:resource="http://purl.org/dc/dcmitype/StillImage" />
        <dc:title></dc:title>
      </cc:Work>
    </rdf:RDF>
  </metadata>
  <defs
     id="defs6" />
  <sodipodi:namedview
     pagecolor="#ffffff"
     bordercolor="#666666"
     borderopacity="1"
     objecttolerance="10"
     gridtolerance="10"
     guidetolerance="10"
     inkscape:pageopacity="0"
     inkscape:pageshadow="2"
     inkscape:window-width="1920"
     inkscape:window-height="1060"
     id="namedview4"
     showgrid="false"
     inkscape:zoom="0.31157583"
     inkscape:cx="300.58902"
     inkscape:cy="529.95658"
     inkscape:window-x="1918"
     inkscape:window-y="-3"
     inkscape:window-maximized="1"
     inkscape:current-layer="svg2" />
  <g
     id="g3821">
    <path
       inkscape:export-ydpi="1000"
       inkscape:export-xdpi="1000"
       inkscape:connector-curvature="0"
       id="path3804"
       d="M 0,94.680002 0,1.6103515e-6 l 95.985,0 95.985,0 0,94.6800003896485 0,94.679998 -95.985,0 -95.985,0 0,-94.679998 z m 172.01565,85.408138 c 0.74019,-0.10703 1.31628,-0.38655 1.92541,-0.93421 l 0.45793,-0.41172 0.56501,0.2914 c 0.53246,0.27461 0.61991,0.29139 1.51801,0.29139 0.8547,0 1.00435,-0.0252 1.45099,-0.24457 0.62187,-0.30542 1.28489,-0.95971 1.57314,-1.55243 0.12118,-0.24915 0.26256,-0.75435 0.31419,-1.12266 0.11767,-0.83928 0.11806,-6.59679 9e-4,-7.38534 -0.0548,-0.36728 -0.0879,-10.62635 -0.089,-27.56533 l -0.002,-26.98035 0.19043,-0.55965 0.19042,-0.55967 0.0236,-45.674998 c 0.013,-25.12125 0.0522,-47.2284 0.0871,-49.127 0.0698,-3.79113 0.0155,-4.61366 -0.35445,-5.371 -0.28902,-0.59169 -0.95289,-1.24756 -1.56684,-1.54793 -0.69638,-0.34071 -1.80223,-0.39142 -2.60628,-0.11952 l -0.571,0.19309 -0.70602,-0.67453 c -0.38831,-0.37099 -0.92111,-0.78783 -1.184,-0.92632 l -0.47819,-0.2517904 -78.12,0 -78.12,0 -0.48747,0.2566004 c -0.72805,0.38324 -1.39576,1.10136 -1.78817,1.92317 l -0.33436,0.70023 0,4.275 0,4.275 0.24458,0.498 c 0.31222,0.63573 0.96168,1.28519 1.59742,1.59742 0.44583,0.21896 0.59699,0.24458 1.443,0.24458 0.846,0 0.99717,-0.0256 1.443,-0.24458 0.62187,-0.30542 1.28489,-0.9597 1.57315,-1.55242 0.31359,-0.64483 0.41277,-1.53111 0.4158,-3.7155 l 0.003,-1.9125 74.9412,0 74.94118,0 1.50318,1.5075 1.50318,1.5075 0.0526,1.485 c 0.029,0.81675 0.0711,20.02857 0.0937,42.69293 0.0387,38.790918 0.032,41.235038 -0.11369,41.669998 -0.14462,0.43184 -0.15921,2.52276 -0.22306,31.96207 -0.0376,17.325 -0.0916,32.11481 -0.12009,32.86624 l -0.0518,1.36624 -1.4013,1.26626 -1.40131,1.26626 -73.5972,0 -73.59721,0 -1.31704,-1.18664 -1.31704,-1.18665 -0.002,-0.95085 c -0.004,-1.89596 -0.25694,-2.75143 -1.0498,-3.54428 -0.23508,-0.23508 -0.65152,-0.53748 -0.92542,-0.672 -0.44583,-0.21896 -0.597,-0.24458 -1.443,-0.24458 -0.846,0 -0.99717,0.0256 -1.443,0.24458 -0.63574,0.31222 -1.2852,0.96168 -1.59742,1.59742 l -0.24458,0.498 0,4.275 0,4.275 0.24457,0.498 c 0.31223,0.63574 0.96169,1.2852 1.59743,1.59743 0.44583,0.21895 0.59699,0.24457 1.443,0.24457 0.85522,0 0.99428,-0.0242 1.46373,-0.25473 l 0.51874,-0.25472 0.46721,0.42005 c 0.59447,0.53449 1.20195,0.84185 1.85232,0.93723 0.7498,0.10995 149.85361,0.11521 150.61365,0.005 z m 3.75435,-5.78041 c -1.20466,-0.64411 -1.30847,-2.20339 -0.19875,-2.98506 1.07883,-0.7599 2.59078,-0.0214 2.69572,1.31667 0.10308,1.31449 -1.3469,2.28331 -2.49697,1.66839 z m -159.39,-0.09 c -1.20466,-0.64411 -1.30848,-2.20339 -0.19875,-2.98506 1.07883,-0.7599 2.59078,-0.0214 2.69572,1.31667 0.10308,1.31449 -1.3469,2.28331 -2.49697,1.66839 z m 159.66,-63.18 c -1.20466,-0.64411 -1.30847,-2.20339 -0.19875,-2.98506 1.07883,-0.7599 2.59078,-0.0214 2.69572,1.31667 0.10308,1.31449 -1.3469,2.28331 -2.49697,1.66839 z m 0.09,-91.440008 c -1.20466,-0.64411 -1.30847,-2.20339 -0.19875,-2.98506 1.07883,-0.75989 2.59078,-0.0214 2.69572,1.31668 0.10308,1.31448 -1.3469,2.2833 -2.49697,1.66838 z m -159.66,-0.99 c -1.20466,-0.64411 -1.30848,-2.20339 -0.19875,-2.98506 1.07883,-0.75989 2.59078,-0.0214 2.69572,1.31668 0.10308,1.31448 -1.3469,2.2833 -2.49697,1.66838 z M 154.19565,167.39814 c 1.11446,-0.16115 1.28109,-0.29119 4.57294,-3.56886 l 3.0236,-3.01056 0.5764,0.19491 c 0.80967,0.2738 1.91315,0.22406 2.61169,-0.1177 0.61394,-0.30037 1.27782,-0.95625 1.56684,-1.54793 0.36893,-0.7553 0.4239,-1.58148 0.35733,-5.371 -0.0492,-2.80226 -0.0764,-25.55622 -0.0528,-44.222 0.003,-2.0295 -0.008,-15.718498 -0.0225,-30.419998 -0.025,-24.61162 -0.0391,-26.76997 -0.17684,-27.23434 -0.29217,-0.98468 -1.23063,-1.92434 -2.20471,-2.20751 -0.73598,-0.21396 -1.82723,-0.13761 -2.4603,0.17212 -0.62613,0.30634 -1.27673,0.9586 -1.58769,1.59173 l -0.24457,0.498 -0.0279,4.05 c -0.0239,3.47074 -0.007,4.12723 0.11475,4.59 0.12891,0.48811 0.13809,2.65436 0.0956,22.545 -0.0517,24.175818 -0.0504,22.551848 -0.0385,48.509998 0.005,10.07325 -0.0182,19.02375 -0.0507,19.89 l -0.0591,1.575 -3.88669,3.8925 -3.88669,3.8925 -61.51572,0 -61.51572,0 -4.51581,-4.5225 -4.51581,-4.5225 -0.0639,-1.26 c -0.0351,-0.693 -0.074,-26.17223 -0.0865,-56.620518 -0.0206,-50.36723 -0.0356,-55.40506 -0.16619,-55.85434 -0.28205,-0.97023 -1.22708,-1.91456 -2.19862,-2.19699 -0.73597,-0.21396 -1.82723,-0.13761 -2.4603,0.17212 -0.62614,0.30634 -1.27674,0.9586 -1.58768,1.59173 l -0.24458,0.498 -0.0279,4.05 c -0.0238,3.46806 -0.007,4.12759 0.11455,4.59 0.12932,0.49042 0.13806,5.19986 0.0952,51.3 -0.026,27.917998 -0.0573,52.643248 -0.0695,54.944998 l -0.0223,4.185 0.24458,0.498 c 0.31134,0.63395 0.96173,1.28548 1.59014,1.59293 0.69868,0.34183 1.802,0.3915 2.61206,0.11757 l 0.57678,-0.19504 3.69822,3.68607 c 3.96958,3.95653 4.12751,4.08613 5.16522,4.2383 0.74958,0.10991 125.91391,0.11516 126.67365,0.005 z M 162.81,156.12773 c -1.20466,-0.64411 -1.30847,-2.20339 -0.19875,-2.98506 1.07883,-0.7599 2.59078,-0.0214 2.69572,1.31667 0.10308,1.31449 -1.3469,2.28331 -2.49697,1.66839 z m -146.61,-1.35 c -1.20466,-0.64411 -1.30848,-2.20339 -0.19875,-2.98506 1.07883,-0.7599 2.59078,-0.0214 2.69572,1.31667 0.10308,1.31449 -1.3469,2.28331 -2.49697,1.66839 z m 146.61,-43.74 c -1.20466,-0.64411 -1.30847,-2.20339 -0.19875,-2.98506 1.07883,-0.7599 2.59078,-0.0214 2.69572,1.31667 0.10308,1.31449 -1.3469,2.28331 -2.49697,1.66839 z m -0.09,-53.009998 c -1.20466,-0.64411 -1.30847,-2.2034 -0.19875,-2.98506 1.07883,-0.7599 2.59078,-0.0214 2.69572,1.31668 0.10308,1.31447 -1.3469,2.2833 -2.49697,1.66838 z M 16.11,44.257722 c -1.20466,-0.64411 -1.30848,-2.20339 -0.19875,-2.98506 1.07883,-0.75989 2.59078,-0.0214 2.69572,1.31668 0.10308,1.31448 -1.3469,2.2833 -2.49697,1.66838 z M 41.94804,157.11702 c 0.61665,-0.3017 1.28032,-0.95727 1.56813,-1.54902 0.3373,-0.69348 0.40026,-1.45142 0.40026,-4.818 0,-1.70775 -0.0405,-3.3885 -0.09,-3.735 -0.13849,-0.9698 -0.54826,-1.68288 -1.31814,-2.29378 l -0.25333,-0.20103 1.51646,-1.47509 1.51646,-1.4751 2.78393,0 c 2.18943,0 2.84578,-0.0269 3.07355,-0.1261 0.16705,-0.0727 2.97463,-2.81498 6.63437,-6.48 l 6.34476,-6.3539 4.99524,-0.004 c 3.69888,-0.003 5.05626,-0.0322 5.23039,-0.1125 0.329,-0.15171 5.90285,-5.83073 6.01673,-6.13025 0.0531,-0.13973 0.0931,-1.03475 0.0931,-2.08405 0,-1.16609 0.0329,-1.83914 0.09,-1.83914 0.0571,0 0.09,-0.675 0.09,-1.845 l 0,-1.845 -0.765,0 -0.765,0 0,1.845 c 0,1.17 0.0329,1.845 0.09,1.845 0.0569,0 0.09,0.64379 0.09,1.75137 l 0,1.75138 -2.71108,2.74862 -2.71107,2.74863 -5.13997,0 -5.13997,0 -6.48229,6.48 -6.48229,6.48 -2.91927,0 -2.91927,0 -1.8499,1.83579 -1.84989,1.83579 -0.77474,0.0374 c -0.60404,0.0292 -0.88233,0.09 -1.263,0.27628 -0.62614,0.30634 -1.27674,0.95861 -1.58768,1.59173 l -0.24457,0.49795 -0.026,4.08245 c -0.0291,4.56651 -0.0187,4.66553 0.57461,5.46689 0.41566,0.56144 1.00492,1.01329 1.59662,1.2243 0.70662,0.252 1.931,0.18973 2.5878,-0.13162 z M 39.78,152.34773 c -1.20466,-0.64411 -1.30848,-2.20339 -0.19875,-2.98506 1.07883,-0.7599 2.59078,-0.0214 2.69572,1.31667 0.10308,1.31449 -1.3469,2.28331 -2.49697,1.66839 z m 11.16804,4.76929 c 0.61598,-0.30137 1.2797,-0.95661 1.56907,-1.54902 0.12511,-0.25613 0.26402,-0.77155 0.31963,-1.186 0.12682,-0.94523 0.0651,-7.42312 -0.0746,-7.83666 l -0.0979,-0.28965 6.84075,-6.79785 6.84076,-6.79784 4.35129,0 c 2.80777,0 4.44115,-0.0334 4.60464,-0.0942 0.37014,-0.13757 7.83843,-7.62328 7.9423,-7.96083 0.0457,-0.1485 0.11087,-2.83162 0.14482,-5.9625 l 0.0617,-5.6925 -0.69586,0 -0.69585,0 0.0671,5.59063 0.0671,5.59063 -3.67855,3.67937 -3.67855,3.67937 -4.49894,0 -4.49893,0 -6.39148,6.36863 c -3.51531,3.50275 -6.62087,6.58605 -6.90124,6.85179 l -0.50977,0.48316 -0.30023,-0.28396 c -0.16512,-0.15614 -0.52297,-0.39432 -0.79522,-0.52926 -0.4441,-0.2201 -0.59217,-0.24533 -1.44,-0.24533 -0.84601,0 -0.99717,0.0256 -1.443,0.24458 -0.63574,0.31222 -1.2852,0.96168 -1.59742,1.59742 l -0.24458,0.498 -0.026,4.08245 c -0.0291,4.56651 -0.0187,4.66553 0.57461,5.46689 0.41566,0.56144 1.00492,1.01329 1.59662,1.2243 0.70662,0.252 1.931,0.18973 2.5878,-0.13162 z M 48.78,152.34773 c -1.20466,-0.64411 -1.30848,-2.20339 -0.19875,-2.98506 1.07883,-0.7599 2.59078,-0.0214 2.69572,1.31667 0.10308,1.31449 -1.3469,2.28331 -2.49697,1.66839 z m 11.16804,4.76929 c 0.61665,-0.3017 1.28032,-0.95727 1.56813,-1.54902 0.3373,-0.69348 0.40026,-1.45142 0.40026,-4.818 0,-1.70775 -0.0405,-3.3885 -0.09,-3.735 -0.11452,-0.80195 -0.41663,-1.42114 -0.96104,-1.9697 l -0.43043,-0.43371 4.17118,-4.1308 4.17118,-4.13079 3.88382,-0.004 c 2.83,-0.003 3.9485,-0.0335 4.12217,-0.1125 0.13109,-0.0596 2.26435,-2.15699 4.74058,-4.66079 3.828,-3.87061 4.50935,-4.59842 4.54977,-4.86 0.0262,-0.1692 0.0724,-3.33503 0.10279,-7.03515 l 0.0553,-6.7275 -0.68655,0 -0.68656,0 0.0645,6.7283 0.0645,6.7283 -4.34374,4.3867 -4.34374,4.3867 -4.00575,0 -4.00576,0 -4.47949,4.44414 -4.47949,4.44413 -0.89036,0.0358 c -0.7382,0.0297 -0.97494,0.0771 -1.38535,0.27795 -0.63236,0.30938 -1.28238,0.95964 -1.59442,1.59502 l -0.24458,0.4979 -0.026,4.08245 c -0.0291,4.56651 -0.0187,4.66553 0.57461,5.46689 0.41566,0.56144 1.00492,1.01329 1.59662,1.2243 0.70662,0.252 1.931,0.18973 2.5878,-0.13162 z M 57.78,152.34773 c -1.20466,-0.64411 -1.30848,-2.20339 -0.19875,-2.98506 1.07883,-0.7599 2.59078,-0.0214 2.69572,1.31667 0.10308,1.31449 -1.3469,2.28331 -2.49697,1.66839 z m 11.16804,4.76929 c 0.61598,-0.30137 1.2797,-0.95661 1.56907,-1.54902 0.35982,-0.73663 0.42144,-1.59744 0.38127,-5.326 -0.041,-3.80267 -0.0624,-3.95621 -0.66543,-4.77125 -0.17968,-0.24285 -0.48787,-0.56174 -0.68487,-0.70865 l -0.35818,-0.2671 2.04539,-2.0025 2.04539,-2.0025 2.06255,0 c 1.56832,0 2.13195,-0.0302 2.35216,-0.12581 0.16669,-0.0724 2.60758,-2.45026 5.75105,-5.6025 4.75761,-4.77089 5.46741,-5.51729 5.50774,-5.79169 0.0255,-0.17325 0.0693,-3.84862 0.0974,-8.1675 l 0.0511,-7.8525 -0.67776,0 -0.67777,0 0.0612,7.83738 0.0612,7.83737 -5.34706,5.34763 -5.34705,5.34762 -2.19574,0 -2.19573,0 -2.39623,2.37223 -2.39622,2.37223 -0.73081,0.0423 c -0.54577,0.0316 -0.85373,0.10244 -1.21632,0.27984 -0.62361,0.30511 -1.27445,0.95819 -1.58494,1.59039 l -0.24458,0.498 -0.026,4.08245 c -0.0291,4.56651 -0.0187,4.66553 0.57461,5.46689 0.41566,0.56144 1.00492,1.01329 1.59662,1.2243 0.70662,0.252 1.931,0.18973 2.5878,-0.13162 z M 66.78,152.34773 c -1.20466,-0.64411 -1.30848,-2.20339 -0.19875,-2.98506 1.07883,-0.7599 2.59078,-0.0214 2.69572,1.31667 0.10308,1.31449 -1.3469,2.28331 -2.49697,1.66839 z m 11.16804,4.76929 c 0.61665,-0.3017 1.28032,-0.95727 1.56813,-1.54902 0.3373,-0.69348 0.40026,-1.45142 0.40026,-4.818 0,-1.70775 -0.0405,-3.3885 -0.09,-3.735 -0.10192,-0.71372 -0.40645,-1.40244 -0.79588,-1.8 l -0.26449,-0.27 6.46599,-6.48 c 5.64918,-5.66142 6.47183,-6.51979 6.51224,-6.795 0.0254,-0.17325 0.0671,-4.45612 0.0926,-9.5175 l 0.0464,-9.2025 -0.66823,0 -0.66823,0 0.0513,9.2025 0.0513,9.2025 -6.46728,6.45674 -6.46729,6.45674 -0.35897,-0.0994 c -0.6027,-0.16688 -1.74427,-0.06 -2.30877,0.21619 -0.62614,0.30634 -1.27674,0.95861 -1.58768,1.59173 l -0.24458,0.498 -0.026,4.08245 c -0.0291,4.56651 -0.0187,4.66553 0.57461,5.46689 0.41566,0.56144 1.00492,1.01329 1.59662,1.2243 0.70662,0.252 1.931,0.18973 2.5878,-0.13162 z M 75.78,152.34773 c -1.20466,-0.64411 -1.30848,-2.20339 -0.19875,-2.98506 1.07883,-0.7599 2.59078,-0.0214 2.69572,1.31667 0.10308,1.31449 -1.3469,2.28331 -2.49697,1.66839 z m 11.16804,4.76929 c 0.61598,-0.30137 1.2797,-0.95661 1.56907,-1.54902 0.35982,-0.73663 0.42144,-1.59744 0.38127,-5.326 -0.041,-3.8057 -0.062,-3.95569 -0.66871,-4.77569 -0.18149,-0.2453 -0.52542,-0.59059 -0.76429,-0.76732 l -0.4343,-0.32134 3.7717,-3.72424 c 3.24393,-3.2031 3.77852,-3.7679 3.82033,-4.03632 0.0267,-0.17165 0.0662,-5.56696 0.0877,-11.98959 l 0.0391,-11.6775 -0.65473,0 -0.65474,0 0.047,11.6775 0.047,11.6775 -3.91184,3.87895 -3.91185,3.87894 -0.60084,0.0482 c -1.10096,0.0884 -2.13479,0.81622 -2.6503,1.86588 l -0.24458,0.498 -0.026,4.08245 c -0.0291,4.56651 -0.0187,4.66553 0.57461,5.46689 0.41566,0.56144 1.00492,1.01329 1.59662,1.2243 0.70662,0.252 1.931,0.18973 2.5878,-0.13162 z M 84.78,152.34773 c -1.20466,-0.64411 -1.30848,-2.20339 -0.19875,-2.98506 1.07883,-0.7599 2.59078,-0.0214 2.69572,1.31667 0.10308,1.31449 -1.3469,2.28331 -2.49697,1.66839 z m 11.16804,4.76929 c 0.61665,-0.3017 1.28032,-0.95727 1.56813,-1.54902 0.30899,-0.63528 0.39999,-1.43554 0.40205,-3.5355 l 0.002,-1.8225 4.58414,0 c 2.91352,0 4.67258,-0.0336 4.82683,-0.0923 0.13348,-0.0507 1.27429,-1.14425 2.53511,-2.43 l 2.29241,-2.33773 2.85419,0 2.8542,0 0.20372,0.49153 c 0.26045,0.62838 0.78963,1.17209 1.43541,1.47484 l 0.50899,0.23863 3.285,0 3.285,0 0.50278,-0.23578 c 1.0515,-0.49311 1.61046,-1.36402 1.61046,-2.50922 0,-1.12761 -0.55979,-2.01681 -1.56404,-2.48442 -0.45772,-0.21313 -0.47014,-0.21383 -3.8342,-0.21383 -3.36407,0 -3.37649,9e-4 -3.8342,0.21383 -0.59331,0.27626 -1.08329,0.77166 -1.35912,1.37413 l -0.21988,0.48029 -3.10606,0 -3.10607,0 -2.38784,2.43 -2.38786,2.43 -4.4758,0 -4.47581,0 -0.0524,-1.10924 c -0.0374,-0.79119 -0.10868,-1.27503 -0.24864,-1.6875 l -0.19622,-0.57826 0.0364,-16.3575 0.0364,-16.3575 -0.63876,0 -0.63875,0 0.0388,15.79505 0.0388,15.79505 -0.43905,-0.20255 c -0.36704,-0.16933 -0.59404,-0.20255 -1.38405,-0.20255 -0.846,0 -0.99718,0.0256 -1.443,0.24457 -0.63574,0.31223 -1.2852,0.96169 -1.59743,1.59743 l -0.24457,0.498 -0.026,4.08245 c -0.0291,4.56651 -0.0187,4.66553 0.57461,5.46689 0.41566,0.56144 1.00491,1.01329 1.59661,1.2243 0.70663,0.252 1.93101,0.18973 2.58781,-0.13162 z M 93.78,152.34773 c -1.20466,-0.64411 -1.30848,-2.20339 -0.19875,-2.98506 1.07883,-0.7599 2.59078,-0.0214 2.69572,1.31667 0.10308,1.31449 -1.3469,2.28331 -2.49697,1.66839 z m 28.8,-5.94 c -1.20466,-0.64411 -1.30847,-2.20339 -0.19875,-2.98506 1.07883,-0.7599 2.59078,-0.0214 2.69572,1.31667 0.10308,1.31449 -1.3469,2.28331 -2.49697,1.66839 z m 4.51399,9.90849 c 0.64569,-0.30252 1.17492,-0.84622 1.43541,-1.47468 l 0.20372,-0.49154 5.92344,0 5.92344,0 0,1.125 0,1.125 3.195,0 3.195,0 0,-2.835 0,-2.835 -3.195,0 -3.195,0 0,1.125 0,1.125 -3.6,0 -3.6,0 0,-11.79289 c 0,-9.88437 -0.0203,-11.83976 -0.12543,-12.0825 -0.0691,-0.15949 -1.33432,-1.49263 -2.81597,-2.96711 l -2.69053,-2.6775 -4.09101,0 -4.09102,0 -2.85802,-2.85697 -2.85802,-2.85698 0,-3.52716 c 0,-3.46546 -0.0338,-3.9301 -0.29813,-4.09818 -0.0588,-0.0374 -1.47374,-0.0686 -3.14437,-0.0693 -1.96408,-9e-4 -3.0375,-0.0332 -3.0375,-0.0914 0,-0.0571 -0.675,-0.09 -1.845,-0.09 l -1.845,0 0,0.765 0,0.765 1.845,0 c 1.17,0 1.845,-0.0329 1.845,-0.09 0,-0.058 0.945,-0.09 2.655,-0.09 l 2.655,0 0,3.52943 0,3.52944 3.0375,3.05004 c 1.68945,1.69643 3.16603,3.10575 3.32711,3.17557 0.23313,0.10104 1.05802,0.12552 4.22941,0.12552 l 3.93979,0 2.4981,2.4969 2.49809,2.49689 0,11.67811 0,11.6781 -1.7484,0 -1.74841,0 -0.21987,-0.48029 c -0.27583,-0.60247 -0.76581,-1.09787 -1.35912,-1.37413 -0.45771,-0.21313 -0.47013,-0.21382 -3.8342,-0.21382 -3.36406,0 -3.37648,9e-4 -3.8342,0.21382 -1.00425,0.46761 -1.56404,1.35681 -1.56404,2.48442 0,1.08401 0.52742,1.96534 1.46124,2.44173 0.5863,0.29911 1.06578,0.33502 4.252,0.31843 l 2.97,-0.0155 0.50899,-0.23847 z M 122.58,155.40773 c -1.20466,-0.64411 -1.30847,-2.20339 -0.19875,-2.98506 1.07883,-0.7599 2.59078,-0.0214 2.69572,1.31667 0.10308,1.31449 -1.3469,2.28331 -2.49697,1.66839 z m 24.39,-11.72273 0,-2.835 -1.305,0 -1.305,0 0,-2.16 0,-2.16 1.35,0 1.35,0 0,-2.835 0,-2.835 -3.195,0 -3.195,0 0,2.835 0,2.835 1.26,0 1.26,0 0,2.16 0,2.16 -1.305,0 -1.305,0 0,2.835 0,2.835 3.195,0 3.195,0 0,-2.835 z m -38.96196,-1.77798 c 0.27113,-0.13265 0.6853,-0.43352 0.92038,-0.6686 0.81123,-0.81122 1.04647,-1.63943 1.0498,-3.69592 l 0.002,-1.1025 3.9534,0 3.9534,0 0.21988,0.48028 c 0.28136,0.61458 0.76996,1.10088 1.40553,1.39894 l 0.50279,0.23578 3.285,0 3.285,0 0.50278,-0.23578 c 1.0515,-0.49311 1.61046,-1.36402 1.61046,-2.50922 0,-1.12761 -0.55979,-2.01681 -1.56404,-2.48442 -0.45772,-0.21313 -0.47014,-0.21383 -3.8342,-0.21383 l -3.375,0 -0.46538,0.21669 c -0.60394,0.28119 -1.13384,0.83437 -1.38902,1.45002 l -0.20372,0.49154 -3.94344,0 -3.94344,0 -0.002,-1.4175 c -0.003,-2.39223 -0.20577,-3.16689 -1.0498,-4.01092 -0.62635,-0.62635 -1.23949,-0.89656 -2.1419,-0.94392 -0.91758,-0.0482 -1.55886,0.12295 -2.1782,0.58118 -0.53455,0.39551 -1.06707,1.08761 -1.2139,1.57767 l -0.10625,0.35465 -1.46909,-1.46705 -1.46908,-1.46707 0,-5.01851 c 0,-3.28569 0.0311,-5.01853 0.09,-5.01853 0.0571,0 0.09,-0.675 0.09,-1.845 l 0,-1.845 -0.765,0 -0.765,0 0,1.845 c 0,1.17 0.0329,1.845 0.09,1.845 0.059,0 0.09,1.82101 0.09,5.28302 l 0,5.28302 2.025,2.032 2.025,2.03201 0.003,3.23747 c 0.003,2.8687 0.0212,3.29042 0.16356,3.70225 0.30584,0.88502 1.12826,1.70952 2.02374,2.02887 0.70662,0.252 1.93101,0.18973 2.5878,-0.13162 z M 122.58,137.40773 c -1.20466,-0.64411 -1.30847,-2.20339 -0.19875,-2.98506 1.07883,-0.7599 2.59078,-0.0214 2.69572,1.31667 0.10308,1.31449 -1.3469,2.28331 -2.49697,1.66839 z m -16.74,-0.27 c -1.20466,-0.64411 -1.30847,-2.20339 -0.19875,-2.98506 1.07883,-0.7599 2.59078,-0.0214 2.69572,1.31667 0.10309,1.31449 -1.3469,2.28331 -2.49697,1.66839 z M 52.02,124.695 l 0,-9.765 -0.29164,0 c -0.27887,0 -0.21493,-0.0768 1.46164,-1.755 l 1.75327,-1.755 8.70836,0 c 5.74558,0 8.70837,0.0306 8.70837,0.09 0,0.0571 0.675,0.09 1.845,0.09 l 1.845,0 0,-0.765 0,-0.765 -1.845,0 c -1.17,0 -1.845,0.0329 -1.845,0.09 0,0.0594 -3.0512,0.09 -8.97359,0.09 l -8.9736,0 -2.34611,2.34 -2.34612,2.34 -2.40529,0 -2.40529,0 0,4.41 0,4.41 -2.16,0 -2.16,0 0,-1.305 0,-1.305 -2.025,0 -2.025,0 0,3.195 0,3.195 2.025,0 2.025,0 0,-1.305 0,-1.305 2.16,0 2.16,0 0,4.77 0,4.77 3.555,0 3.555,0 0,-9.765 z m 98.62004,4.62847 c 0.18498,-0.0645 0.30895,-0.18845 0.37343,-0.37343 0.0675,-0.19377 0.0965,-6.10673 0.0965,-19.69687 l 0,-19.419968 0.48028,-0.21988 c 0.61458,-0.28137 1.10088,-0.76996 1.39894,-1.40553 l 0.23581,-0.50279 0,-3.285 0,-3.285 -0.23578,-0.50278 c -0.12968,-0.27653 -0.38879,-0.65579 -0.5758,-0.84281 -0.3181,-0.31809 -1.11807,-0.76655 -1.37092,-0.76853 -0.0879,-7.2e-4 -0.1125,-0.69903 -0.1125,-3.18928 l 0,-3.1884 0.48028,-0.21988 c 0.61458,-0.28137 1.10088,-0.76996 1.39894,-1.40554 l 0.23578,-0.50278 0,-3.285 0,-3.285 -0.23578,-0.50278 c -0.29806,-0.63558 -0.78436,-1.12417 -1.39893,-1.40553 l -0.48029,-0.21989 0,-3.6318 0,-3.63181 0.48028,-0.21988 c 0.61458,-0.28136 1.10088,-0.76996 1.39894,-1.40553 l 0.23578,-0.50278 0,-3.195 c 0,-2.36566 -0.0298,-3.27607 -0.11472,-3.50731 l -0.11473,-0.3123 3.10303,-3.1077 c 1.70666,-1.70923 3.14541,-3.2217 3.19723,-3.36105 0.13236,-0.35601 0.13097,-19.57318 -0.001,-19.92145 -0.0526,-0.13834 -0.14373,-0.28211 -0.2025,-0.31948 -0.0588,-0.0374 -28.68686,-0.0686 -63.61795,-0.0693 -57.6185,-0.001 -63.52419,0.0117 -63.65249,0.14005 -0.12558,0.12513 -0.14187,0.71084 -0.14187,5.085 l 0,4.94357 -1.125,0 -1.125,0 0,3.195 0,3.195 1.125,0 1.125,0 0,13.59 0,13.59 -1.26,0 -1.26,0 0,2.835 0,2.835 3.195,0 3.195,0 0,-2.835 0,-2.835 -1.35,0 -1.35,0 0,-13.59 0,-13.59 1.125,0 1.125,0 0,-3.195 0,-3.195 -1.125,0 -1.125,0 0,-4.5 0,-4.5 27,0 27,0 0,3.49344 0,3.49343 -0.49154,0.20373 c -0.61565,0.25518 -1.16883,0.78508 -1.45002,1.38902 -0.21662,0.46524 -0.21668,0.46633 -0.21668,3.79538 0,3.31669 8.1e-4,3.33183 0.21381,3.78919 0.46762,1.00426 1.35682,1.56405 2.48443,1.56405 1.14521,0 2.01611,-0.55896 2.50921,-1.61046 l 0.23579,-0.50278 0,-3.24 0,-3.24 -0.23579,-0.50279 c -0.29805,-0.63557 -0.78435,-1.12417 -1.39893,-1.40553 l -0.48028,-0.21988 0,-3.5034 0,-3.5034 35.1,0 35.1,0 0,9.338 0,9.338 -3.00332,3.00231 c -1.98571,1.98506 -3.02625,2.96519 -3.07102,2.89275 -0.0373,-0.0603 -0.27538,-0.20626 -0.52919,-0.32443 -0.64705,-0.30128 -1.62492,-0.30174 -2.27067,-10e-4 -0.58468,0.27225 -1.07797,0.76554 -1.35022,1.35023 -0.21297,0.45736 -0.21383,0.4725 -0.21383,3.78919 0,3.32905 7e-5,3.33013 0.21669,3.79538 0.28119,0.60394 0.83437,1.13384 1.45002,1.38902 l 0.49154,0.20373 0,3.61187 0,3.61188 -0.49154,0.20373 c -0.61565,0.25517 -1.16883,0.78508 -1.45002,1.38901 l -0.21669,0.46538 0,3.375 0,3.375 0.21669,0.46539 c 0.28119,0.60393 0.83437,1.13384 1.45002,1.38901 l 0.49154,0.20373 0,3.20094 0,3.20094 -0.40176,0.16521 c -0.53141,0.21853 -1.0915,0.77463 -1.35913,1.34941 l -0.21668,0.46538 0,3.375 0,3.375 0.21668,0.46538 c 0.2812,0.60393 0.83438,1.13384 1.45003,1.38901 l 0.49153,0.20373 0,19.198438 0,19.19844 -6.06366,0 -6.06366,0 -1.99134,-2.02758 -1.99134,-2.02758 0,-5.98242 0,-5.98242 1.305,0 1.305,0 0,-2.835 0,-2.835 -3.195,0 -3.195,0 0,1.08 0,1.08 -3.105,0 -3.105,0 0,-1.125 0,-1.125 -3.195,0 -3.195,0 0,0.45 0,0.45 -1.98,0 -1.98,0 0,-2.50657 c 0,-2.55963 -0.0517,-3.02577 -0.34502,-3.10825 -0.0825,-0.0232 -2.65085,-0.0702 -5.70748,-0.10447 l -5.5575,-0.0623 0,0.69783 0,0.69783 5.22,-0.0668 5.22,-0.0667 0,2.2385 0,2.2385 -10.7325,0.0196 -10.7325,0.0196 -4.23,-4.21761 -4.23,-4.217608 -3.41223,-0.0557 c -1.8774,-0.0307 -4.13527,-0.0558 -5.01817,-0.0558 l -1.60527,0 0,0.68857 0,0.688558 4.7475,-0.0631 4.7475,-0.0631 2.25,2.26445 2.25,2.26445 -6.9975,-0.0596 -6.9975,-0.0596 0,0.68216 0,0.68217 7.56664,-0.0622 7.56664,-0.0622 1.32086,1.31533 c 0.72647,0.72343 1.44236,1.36108 1.59086,1.41699 0.1961,0.0739 3.93412,0.10256 13.6575,0.1049 l 13.3875,0.003 0,1.78953 0,1.78953 3.195,0 3.195,0 0,-1.125 0,-1.125 3.105,0 3.105,0 0,1.17 0,1.17 1.305,0 1.305,0 0,6.21701 0,6.21701 2.21509,2.26549 c 1.2183,1.24602 2.32193,2.31428 2.4525,2.37393 0.31908,0.14574 12.89754,0.16467 13.31245,0.02 z M 149.76,86.017732 c -1.20466,-0.64411 -1.30847,-2.2034 -0.19875,-2.98506 1.07883,-0.7599 2.59078,-0.0214 2.69572,1.31668 0.10308,1.31448 -1.3469,2.2833 -2.49697,1.66838 z m -0.18,-17.19 c -1.20466,-0.64411 -1.30847,-2.2034 -0.19875,-2.98506 1.07883,-0.7599 2.59078,-0.0214 2.69572,1.31668 0.10308,1.31447 -1.3469,2.2833 -2.49697,1.66838 z m 0,-18.09001 c -1.20466,-0.64411 -1.30847,-2.20339 -0.19875,-2.98506 1.07883,-0.75989 2.59078,-0.0214 2.69572,1.31668 0.10308,1.31448 -1.3469,2.2833 -2.49697,1.66838 z m -63.09,-17.01 c -1.20466,-0.64411 -1.30848,-2.20339 -0.19875,-2.98506 1.07883,-0.75989 2.59078,-0.0214 2.69572,1.31668 0.10308,1.31448 -1.3469,2.2833 -2.49697,1.66838 z M 29.97,124.335 l 0,-3.195 -0.72,0 -0.72,0 0,-13.32 0,-13.319998 0.72,0 0.72,0 0,-3.195 0,-3.195 -0.72,0 -0.72,0 0,-1.10366 0,-1.10367 1.31425,-1.30383 c 0.72284,-0.71711 1.37084,-1.43416 1.44,-1.59345 0.0972,-0.22392 0.12575,-0.83121 0.12575,-2.6775 l 0,-2.38789 1.98,0 1.98,0 0,-1.08 0,-1.08 9.96679,0 9.9668,0 2.0932,2.09178 2.09321,2.09179 0,9.44593 0,9.44594 1.9125,1.927128 c 1.05187,1.05993 2.04282,1.98345 2.20211,2.05229 0.23904,0.10329 1.50796,0.12514 7.2675,0.12514 l 6.97789,0 0,-0.675 0,-0.675 -2.745,0 c -1.77,0 -2.745,0.032 -2.745,0.09 0,0.0587 -1.43279,0.09 -4.11837,0.09 l -4.11836,0 -1.73164,-1.73335 -1.73163,-1.733338 0,-0.55293 0,-0.55294 14.53372,0 14.53371,0 1.29657,1.34012 c 0.71312,0.73708 1.41232,1.38534 1.55379,1.44057 0.18482,0.0722 3.72094,0.100398 12.56471,0.100338 l 12.3075,0 0,1.07112 0,1.07114 3.195,0 3.195,0 0,-1.125 0,-1.124998 3.105,0 3.105,0 0,1.169998 0,1.17 3.195,0 3.195,0 0,-1.125 0,-1.125 3.42,0 3.42,0 0,10.44 0,10.44 -1.305,0 -1.305,0 0,2.835 0,2.835 3.195,0 3.195,0 0,-2.835 0,-2.835 -1.305,0 -1.305,0 0,-14.48414 c 0,-9.896208 -0.0299,-14.564388 -0.0945,-14.737498 -0.052,-0.13935 -0.56366,-0.72516 -1.13706,-1.3018 l -1.04255,-1.04844 0.33878,-0.33878 c 0.18632,-0.18632 0.44488,-0.56502 0.57456,-0.84156 l 0.23577,-0.50351 0,-3.285 0,-3.285 -0.23578,-0.50278 c -0.12968,-0.27653 -0.38879,-0.65579 -0.5758,-0.84281 -0.3181,-0.31809 -1.11807,-0.76655 -1.37092,-0.76853 -0.0879,-7.2e-4 -0.1125,-0.69903 -0.1125,-3.18928 l 0,-3.1884 0.48028,-0.21988 c 0.61458,-0.28137 1.10088,-0.76996 1.39894,-1.40554 l 0.23578,-0.50278 0,-3.285 0,-3.285 -0.23578,-0.50278 c -0.29806,-0.63558 -0.78436,-1.12417 -1.39894,-1.40553 l -0.48028,-0.21989 0,-3.6318 0,-3.63181 0.48028,-0.21988 c 0.61458,-0.28136 1.10088,-0.76996 1.39894,-1.40553 l 0.23578,-0.50278 0,-3.24 0,-3.24 -0.23578,-0.50279 c -0.49311,-1.0515 -1.36402,-1.61045 -2.50922,-1.61045 -1.12761,0 -2.01681,0.55978 -2.48442,1.56404 -0.21297,0.45736 -0.21383,0.4725 -0.21383,3.7892 0,3.32904 7e-5,3.33013 0.21669,3.79538 0.28119,0.60393 0.83437,1.13384 1.45002,1.38901 l 0.49154,0.20373 0,3.61188 0,3.61188 -0.49154,0.20373 c -0.61565,0.25517 -1.16883,0.78508 -1.45002,1.38901 l -0.21669,0.46538 0,3.375 0,3.375 0.21669,0.46538 c 0.28119,0.60393 0.83437,1.13384 1.45002,1.38902 l 0.49154,0.20373 0,3.20093 0,3.20094 -0.40176,0.16522 c -0.53141,0.21852 -1.0915,0.77462 -1.35913,1.3494 l -0.21668,0.46538 0,3.375 c 0,3.36407 9e-4,3.37649 0.21382,3.8342 0.43209,0.92796 1.3671,1.56326 2.30322,1.56492 l 0.49379,9e-4 1.19371,1.19125 1.1937,1.19125 0,3.35375 0,3.35375 -3.42,0 -3.42,0 0,-1.125 0,-1.125 -3.195,0 -3.195,0 0,1.08 0,1.08 -3.105,0 -3.105,0 0,-1.125 0,-1.125 -3.195,0 -3.195,0 0,1.1613 0,1.1613 -12.23985,-0.003 -12.23986,-0.003 -1.38991,-1.42841 -1.38993,-1.42842 -6.19272,-0.0211 c -3.40667,-0.0116 -10.0409,-0.0217 -14.7434,-0.0225 l -8.55,-0.001 -0.045,-8.235 c -0.0333,-6.09387 -0.0726,-8.2818 -0.15117,-8.415 -0.0584,-0.099 -1.13348,-1.20262 -2.38906,-2.4525 l -2.28289,-2.2725 -7.62344,0 -7.62344,0 0,-14.26789 c 0,-12.01778 -0.0198,-14.31357 -0.12575,-14.5575 -0.0692,-0.15929 -0.71716,-0.87634 -1.44,-1.59345 l -1.31425,-1.30384 0,-9.78866 0,-9.78866 13.74767,0 13.74768,0 8.72982,8.73888 c 5.0883,5.09357 8.85063,8.79149 9.01944,8.865 0.23945,0.10427 1.40227,0.12612 6.71407,0.12612 4.34052,0 6.51428,-0.0313 6.70136,-0.0965 0.39842,-0.13889 0.46996,-0.44722 0.46996,-2.02531 l 0,-1.37497 0.48028,-0.21988 c 0.61458,-0.28136 1.10088,-0.76996 1.39894,-1.40553 l 0.23578,-0.50278 0,-3.24 0,-3.24 -0.23578,-0.50279 c -0.49311,-1.0515 -1.36402,-1.61045 -2.50922,-1.61045 -1.12761,0 -2.01681,0.55978 -2.48442,1.56404 -0.21297,0.45736 -0.21383,0.4725 -0.21383,3.7892 0,3.32904 7e-5,3.33013 0.21669,3.79538 0.28119,0.60393 0.83437,1.13384 1.45002,1.38901 l 0.49154,0.20373 0,1.15344 0,1.15344 -6.09689,0 -6.09688,0 -8.86669,-8.865 -8.86668,-8.865 -14.46,0 c -13.02546,0 -14.47404,0.014 -14.60143,0.14143 -0.12696,0.12695 -0.14143,1.21551 -0.14143,10.63633 l 0,10.4949 1.44,1.4496 1.44,1.4496 0,14.14907 0,14.14907 -2.025,0 -2.025,0 0,-1.17 0,-1.17 -3.195,0 -3.195,0 0,2.835 0,2.835 0.522,0 c 0.2871,0 0.5706,0.0486 0.63,0.108 0.078,0.078 0.108,0.70824 0.108,2.26907 l 0,2.16107 -1.44,1.4496 -1.44,1.4496 0,1.36633 0,1.36633 -0.72,0 -0.72,0 0,3.195 0,3.195 0.72,0 0.72,0 0,13.319998 0,13.32 -0.72,0 -0.72,0 0,3.195 0,3.195 2.025,0 2.025,0 0,-3.195 z M 139.86,86.017732 c -1.20466,-0.64411 -1.30847,-2.2034 -0.19875,-2.98506 1.07883,-0.7599 2.59078,-0.0214 2.69572,1.31668 0.10308,1.31448 -1.3469,2.2833 -2.49697,1.66838 z m -0.18,-17.19 c -1.20466,-0.64411 -1.30847,-2.2034 -0.19875,-2.98506 1.07883,-0.7599 2.59078,-0.0214 2.69572,1.31668 0.10308,1.31447 -1.3469,2.2833 -2.49697,1.66838 z m 0,-18.09001 c -1.20466,-0.64411 -1.30847,-2.20339 -0.19875,-2.98506 1.07883,-0.75989 2.59078,-0.0214 2.69572,1.31668 0.10308,1.31448 -1.3469,2.2833 -2.49697,1.66838 z m -44.19,-17.01 c -1.20466,-0.64411 -1.30848,-2.20339 -0.19875,-2.98506 1.07883,-0.75989 2.59078,-0.0214 2.69572,1.31668 0.10308,1.31448 -1.3469,2.2833 -2.49697,1.66838 z m -17.64,74.233298 0,-0.66897 -10.0575,0.0513 -10.0575,0.0513 -3.32262,-3.27483 -3.32261,-3.27484 0.46511,-0.0272 0.46512,-0.0272 0,-9.760288 0,-9.7603 -3.555,0 -3.555,0 0,4.725 0,4.725 -2.16,0 -2.16,0 0,-1.305 0,-1.305 -2.025,0 -2.025,0 0,3.195 0,3.195 2.025,0 2.025,0 0,-1.305 0,-1.305 2.16,0 2.16,0 0,4.455 0,4.454998 2.25933,0 2.25932,0 3.8461,3.825 c 2.11536,2.10375 3.86278,3.83432 3.88317,3.84572 0.0204,0.0114 3.45933,0.0423 7.64208,0.0687 4.18275,0.0264 8.83012,0.0576 10.3275,0.0693 l 2.7225,0.0212 0,-0.66898 z m 29.52,-2.79602 0,-0.675 -2.745,0 -2.745,0 0,0.675 0,0.675 2.745,0 2.745,0 0,-0.675 z m 0,-8.549998 0,-0.675 -2.745,0 -2.745,0 0,0.675 0,0.675 2.745,0 2.745,0 0,-0.675 z m -26.80107,-2.3244 c 0.43151,-0.18191 1.12674,-0.96438 1.19898,-1.34945 0.11434,-0.60949 -0.0412,-0.82103 -2.16262,-2.94085 l -2.02529,-2.0238 0,-5.42614 c 0,-4.45611 -0.0226,-5.47791 -0.12614,-5.71575 -0.0742,-0.17037 -5.53704,-5.69682 -13.26823,-13.42273 l -13.14209,-13.13311 0.30704,-0.37471 c 0.60582,-0.73933 0.62013,-0.83444 0.62239,-4.13906 0.002,-3.46588 -0.0243,-3.61776 -0.76534,-4.3588 -0.98983,-0.98983 -2.60457,-0.9907 -3.59335,-0.002 -0.70708,0.70706 -0.72428,0.80957 -0.72428,4.3157 0,3.50612 0.0172,3.60863 0.72428,4.31571 0.49365,0.49364 1.04905,0.72429 1.74414,0.72429 l 0.45635,0 13.29762,13.29739 13.29761,13.29738 0,5.57573 0,5.57572 2.08837,2.0953 2.08837,2.09529 -0.256,0.2672 -0.256,0.2672 -3.85737,-0.0551 -3.85737,-0.0551 0,0.70405 0,0.70405 3.95643,-0.0569 c 3.06823,-0.0441 4.02289,-0.0849 4.2525,-0.1817 z M 48.825,47.190132 c -0.39684,-0.20968 -0.58386,-0.39536 -0.77458,-0.76905 -0.38723,-0.75872 -0.0652,-1.64538 0.74849,-2.06066 1.27322,-0.64983 2.71049,0.78744 2.06067,2.06066 -0.4037,0.79097 -1.33025,1.1412 -2.03458,0.76905 z m 68.265,47.16387 c 0.27204,-0.0403 0.82819,-0.55814 4.07847,-3.79782 2.06991,-2.06314 3.81141,-3.83218 3.87,-3.93118 0.0793,-0.13407 0.11801,-2.51804 0.15153,-9.34372 l 0.045,-9.16373 0.46477,-0.15733 c 0.89971,-0.30456 1.76916,-1.19205 2.07089,-2.11387 0.12748,-0.38947 0.15673,-0.99215 0.18771,-3.86835 0.0402,-3.72856 -0.0214,-4.58936 -0.38126,-5.326 -0.28985,-0.59341 -0.95292,-1.24734 -1.57411,-1.55242 -0.44583,-0.21896 -0.597,-0.24458 -1.443,-0.24458 -0.846,0 -0.99717,0.0256 -1.443,0.24458 -0.63574,0.31222 -1.2852,0.96168 -1.59743,1.59742 l -0.24457,0.498 -0.026,4.08245 c -0.0219,3.44641 -0.005,4.15597 0.11118,4.55434 0.27404,0.94265 1.22974,1.89525 2.17797,2.17091 l 0.48184,0.14007 0,8.92654 0,8.92653 -3.6376,3.63677 -3.63761,3.63678 -7.43239,-0.0626 -7.4324,-0.0626 0,0.68088 0,0.68089 7.4475,-0.0526 c 4.09613,-0.0289 7.58925,-0.0736 7.7625,-0.0993 z m 6.75,-31.28627 c -1.20466,-0.64411 -1.30847,-2.2034 -0.19875,-2.98506 1.07883,-0.7599 2.59078,-0.0214 2.69572,1.31668 0.10309,1.31447 -1.3469,2.2833 -2.49697,1.66838 z m -47.79,27.96727 0,-0.765 -0.63,0 -0.63,0 0,-2.33414 c 0,-1.37433 -0.0379,-2.43379 -0.0921,-2.57647 -0.0507,-0.13328 -5.01193,-5.14195 -11.025,-11.13036 l -10.93287,-10.88804 -0.002,-1.81299 c -0.002,-2.09063 -0.0934,-2.89133 -0.40205,-3.526 -0.28829,-0.59274 -0.95132,-1.24701 -1.57317,-1.55242 -0.44583,-0.21896 -0.597,-0.24458 -1.443,-0.24458 -0.84601,0 -0.99717,0.0256 -1.443,0.24458 -0.63574,0.31222 -1.2852,0.96168 -1.59742,1.59742 l -0.24458,0.498 0,4.275 0,4.275 0.24458,0.498 c 0.31094,0.63312 0.96154,1.28539 1.58768,1.59172 0.63307,0.30974 1.72433,0.38608 2.4603,0.17213 0.95787,-0.27846 1.91874,-1.22857 2.187,-2.16251 0.0726,-0.25264 0.1631,-0.84343 0.20119,-1.31287 l 0.0693,-0.85354 10.4175,10.38292 10.4175,10.38291 0,2.23812 0,2.23812 -0.63,0 -0.63,0 0,0.765 0,0.765 1.845,0 1.845,0 0,-0.765 z M 48.6,64.417732 c -1.20466,-0.64411 -1.30848,-2.2034 -0.19875,-2.98506 1.07883,-0.7599 2.59078,-0.0214 2.69572,1.31668 0.10308,1.31447 -1.3469,2.2833 -2.49697,1.66838 z m 58.77,27.29227 c 0,-0.0583 1.13805,-0.09 3.23414,-0.09 2.041,0 3.32761,-0.0349 3.4875,-0.0946 0.25562,-0.0955 1.83975,-1.5967 2.03697,-1.93036 0.0795,-0.13458 0.11775,-2.86721 0.15139,-10.82873 l 0.045,-10.64872 0.46477,-0.15733 c 0.89972,-0.30457 1.76916,-1.19206 2.07089,-2.11388 0.12748,-0.38947 0.15673,-0.99215 0.18771,-3.86835 0.0402,-3.72855 -0.0214,-4.58936 -0.38126,-5.326 -0.28985,-0.5934 -0.95292,-1.24734 -1.57411,-1.55242 -0.44583,-0.21895 -0.597,-0.24458 -1.443,-0.24458 -0.846,0 -0.99717,0.0256 -1.443,0.24458 -0.63574,0.31223 -1.2852,0.96169 -1.59743,1.59742 l -0.24457,0.498 -0.026,4.08245 c -0.0219,3.44642 -0.005,4.15598 0.11118,4.55434 0.27404,0.94265 1.22974,1.89525 2.17797,2.17091 l 0.48184,0.14008 0,10.40923 0,10.40924 -0.74051,0.74438 -0.74051,0.74438 -3.12949,0 c -2.02632,0 -3.12949,-0.0317 -3.12949,-0.09 0,-0.0571 -0.675,-0.09 -1.845,-0.09 l -1.845,0 0,0.765 0,0.765 1.845,0 c 1.17,0 1.845,-0.0329 1.845,-0.09 z m 7.56,-28.64227 c -1.20466,-0.64411 -1.30847,-2.2034 -0.19875,-2.98506 1.07883,-0.7599 2.59078,-0.0214 2.69572,1.31668 0.10308,1.31447 -1.3469,2.2833 -2.49697,1.66838 z m -31.55232,16.87477 c -0.0259,-4.93762 -0.068,-9.11925 -0.0935,-9.2925 -0.0403,-0.2742 -0.71005,-0.97962 -5.17027,-5.44605 l -5.1239,-5.13105 0,-1.21989 0,-1.21989 0.49153,-0.20373 c 0.62837,-0.26044 1.17209,-0.78962 1.47485,-1.43541 l 0.23862,-0.50898 0,-3.285 0,-3.285 -0.23579,-0.50279 c -0.4931,-1.0515 -1.364,-1.61045 -2.50921,-1.61045 -1.12761,0 -2.01681,0.55978 -2.48443,1.56404 -0.21312,0.45771 -0.21381,0.47013 -0.21381,3.8342 0,3.36407 7.2e-4,3.37649 0.21381,3.83419 0.27627,0.59332 0.77167,1.0833 1.37415,1.35912 l 0.48028,0.21988 0,1.49909 0,1.49909 5.18981,5.19267 5.1898,5.19267 -0.0572,8.96165 -0.0572,8.96164 0.66983,0 0.66984,0 -0.0471,-8.9775 z M 71.73,53.797732 c -1.20466,-0.64412 -1.30848,-2.2034 -0.19875,-2.98507 1.07883,-0.75989 2.59078,-0.0214 2.69572,1.31668 0.10308,1.31448 -1.3469,2.28331 -2.49697,1.66839 z m 14.43078,23.44477 c -0.0215,-6.42263 -0.0608,-11.81925 -0.0874,-11.9925 -0.0399,-0.26007 -0.30599,-0.57453 -1.52586,-1.80334 l -1.4775,-1.48834 3.6e-4,-2.20166 3.6e-4,-2.20166 0.40176,-0.16521 c 0.54333,-0.22344 1.09531,-0.78014 1.38394,-1.39581 l 0.23858,-0.50898 0,-3.285 0,-3.285 -0.23579,-0.50279 c -0.4931,-1.0515 -1.364,-1.61045 -2.50921,-1.61045 -1.12761,0 -2.01681,0.55978 -2.48443,1.56404 -0.21312,0.45771 -0.21381,0.47013 -0.21381,3.8342 0,3.36407 7.2e-4,3.37649 0.21381,3.83419 0.1176,0.25256 0.36619,0.61157 0.55243,0.79781 0.31695,0.31695 1.1171,0.76515 1.3695,0.76712 0.0872,7.2e-4 0.1125,0.55068 0.1125,2.44755 l 0,2.44667 1.54366,1.55282 1.54366,1.55283 -0.0486,11.66051 -0.0486,11.6605 0.65484,0 0.65485,0 -0.0391,-11.6775 z M 81.63,53.797732 c -1.20466,-0.64412 -1.30848,-2.2034 -0.19875,-2.98507 1.07883,-0.75989 2.59078,-0.0214 2.69572,1.31668 0.10308,1.31448 -1.3469,2.28331 -2.49697,1.66839 z m 7.40112,14.17477 c -0.0147,-12.90773 -0.0568,-21.06871 -0.10961,-21.26329 -0.0636,-0.23424 -0.45421,-0.68168 -1.51247,-1.7325 l -1.42674,-1.41671 -5.16896,0 -5.16896,0 -4.88045,-4.8825 -4.88046,-4.8825 0.24577,-0.4948 c 0.22067,-0.44429 0.24576,-0.59129 0.24576,-1.44 0,-0.84623 -0.0256,-0.99735 -0.24458,-1.4432 -0.31223,-0.63574 -0.96168,-1.2852 -1.59742,-1.59742 l -0.498,-0.24458 -4.08245,-0.026 c -3.44641,-0.0219 -4.15597,-0.005 -4.55434,0.11119 -0.94265,0.27403 -1.89525,1.22973 -2.17091,2.17796 l -0.14007,0.48184 -4.13362,0 -4.13361,0 0,-1.26 0,-1.26 -2.835,0 -2.835,0 0,3.195 0,3.195 2.835,0 2.835,0 0,-1.3509 0,-1.3509 4.14623,0.0234 4.14622,0.0234 0.15733,0.46477 c 0.30455,0.89971 1.19205,1.76916 2.11387,2.07089 0.38947,0.12748 0.99215,0.15673 3.86835,0.18772 3.73717,0.0403 4.5942,-0.0213 5.323,-0.3821 l 0.45,-0.22281 4.95,4.94413 c 2.73341,2.73018 5.06345,4.98629 5.20336,5.03827 0.16513,0.0614 1.99906,0.0941 5.26625,0.0941 l 5.01289,0 1.20079,1.20327 1.20079,1.20326 -0.032,20.89174 -0.032,20.89173 0.63,1e-5 0.63,0 -0.0239,-20.94751 z M 59.04,33.457722 c -1.20466,-0.64411 -1.30848,-2.20339 -0.19875,-2.98506 1.07883,-0.75989 2.59078,-0.0214 2.69572,1.31668 0.10308,1.31448 -1.3469,2.2833 -2.49697,1.66838 z m 32.77293,34.66039 -0.0321,-20.8019 1.42602,-1.42811 1.42602,-1.4281 5.23012,0 c 3.49044,0 5.32222,-0.0321 5.50702,-0.0965 0.18498,-0.0645 0.30895,-0.18845 0.37344,-0.37343 0.0614,-0.17625 0.0965,-1.39825 0.0965,-3.36188 l 0,-3.08497 0.48029,-0.21988 c 0.61457,-0.28136 1.10088,-0.76996 1.39893,-1.40553 l 0.23581,-0.50278 0,-3.24 0,-3.24 -0.23578,-0.50279 c -0.49311,-1.0515 -1.36402,-1.61045 -2.50922,-1.61045 -1.12761,0 -2.01681,0.55978 -2.48442,1.56404 -0.21297,0.45736 -0.21383,0.4725 -0.21383,3.7892 0,3.32904 7e-5,3.33013 0.21669,3.79538 0.28119,0.60393 0.83437,1.13384 1.45002,1.38901 l 0.49154,0.20373 0,2.86344 0,2.86344 -5.28494,0 -5.28493,0 -1.73507,1.73506 -1.73506,1.73506 0,16.96244 c -6e-5,9.32935 -0.0269,18.81532 -0.0597,21.07994 l -0.0596,4.1175 0.66718,0 0.66718,10e-6 -0.0321,-20.8019 z M 104.49,33.727722 c -1.20466,-0.64411 -1.30847,-2.20339 -0.19875,-2.98506 1.07883,-0.75989 2.59078,-0.0214 2.69572,1.31668 0.10308,1.31448 -1.3469,2.2833 -2.49697,1.66838 z m -9.79716,35.83169 -0.033,-19.36059 0.79571,-0.79941 0.79571,-0.79941 8.92094,0 c 6.11742,0 9.00797,-0.0303 9.19785,-0.0965 0.18498,-0.0645 0.30895,-0.18845 0.37344,-0.37343 0.0643,-0.18462 0.0965,-1.99492 0.0965,-5.43188 l 0,-5.15497 0.48029,-0.21988 c 0.61457,-0.28136 1.10088,-0.76996 1.39893,-1.40553 l 0.2358,-0.50278 0,-3.24 0,-3.24 -0.23578,-0.50279 c -0.49311,-1.0515 -1.36402,-1.61045 -2.50922,-1.61045 -1.12761,0 -2.01681,0.55978 -2.48442,1.56404 -0.21297,0.45736 -0.21383,0.4725 -0.21383,3.7892 0,3.32904 7e-5,3.33013 0.21669,3.79538 0.28119,0.60393 0.83437,1.13384 1.45002,1.38901 l 0.49154,0.20373 0,4.93344 0,4.93344 -8.97353,0 -8.97353,0 -1.10647,1.10647 -1.10647,1.10647 0,15.52103 c -6e-5,8.53657 -0.0269,17.37391 -0.0597,19.63853 l -0.0596,4.1175 0.66761,0 0.6676,0 -0.033,-19.36059 z M 113.49,33.727722 c -1.20466,-0.64411 -1.30847,-2.20339 -0.19875,-2.98506 1.07883,-0.75989 2.59078,-0.0214 2.69572,1.31668 0.10308,1.31448 -1.3469,2.2833 -2.49697,1.66838 z m -15.93,52.44728 0,-2.745 -0.675,0 -0.675,0 0,2.745 0,2.745 0.675,0 0.675,0 0,-2.745 z m -16.92,-0.9 c 0,-1.17 -0.0329,-1.845 -0.09,-1.845 -0.059,0 -0.09,-1.80096 -0.09,-5.22289 0,-4.28157 -0.0227,-5.27508 -0.12613,-5.5125 -0.0739,-0.1696 -4.49321,-4.65295 -10.665,-10.81947 C 59.50002,51.714992 59.13,51.333682 59.13,51.014622 c 0,-0.29889 0.0307,-0.34078 0.31902,-0.43595 0.47904,-0.1581 1.1623,-0.89008 1.35978,-1.45676 0.14841,-0.42586 0.1662,-0.79005 0.1662,-3.40191 0,-3.41523 -0.0284,-3.57482 -0.76737,-4.3138 -0.98983,-0.98983 -2.60457,-0.9907 -3.59335,-0.002 -0.70708,0.70706 -0.72428,0.80957 -0.72428,4.3157 0,2.55353 0.0228,3.09489 0.14562,3.4553 0.19902,0.58408 0.87583,1.25089 1.46997,1.44823 l 0.45441,0.15093 0,0.55438 0,0.55437 10.665,10.66641 10.665,10.66641 0,5.10699 c 0,3.34465 -0.0311,5.10698 -0.09,5.10698 -0.0571,0 -0.09,0.675 -0.09,1.845 l 0,1.845 0.765,0 0.765,0 0,-1.845 z M 57.825,47.190132 c -0.39684,-0.20968 -0.58386,-0.39536 -0.77458,-0.76905 -0.38723,-0.75872 -0.0652,-1.64538 0.74849,-2.06066 1.27322,-0.64983 2.71049,0.78744 2.06067,2.06066 -0.4037,0.79097 -1.33025,1.1412 -2.03458,0.76905 z m 42.705,38.08487 c 0,-1.17 -0.0329,-1.845 -0.09,-1.845 -0.0593,0 -0.09,-2.52783 -0.09,-7.40349 l 0,-7.4035 1.51408,-1.51211 1.51407,-1.51211 0.10626,0.35467 c 0.25113,0.8382 1.25118,1.78976 2.15803,2.05339 0.73598,0.21395 1.82724,0.13761 2.4603,-0.17213 0.61236,-0.29959 1.27637,-0.9565 1.56343,-1.54672 0.33729,-0.69348 0.40027,-1.45142 0.40027,-4.818 0,-3.36658 -0.063,-4.12452 -0.40027,-4.818 -0.2883,-0.59274 -0.95132,-1.24702 -1.57317,-1.55242 -0.44583,-0.21896 -0.597,-0.24458 -1.443,-0.24458 -0.846,0 -0.99717,0.0256 -1.443,0.24458 -0.63574,0.31222 -1.2852,0.96168 -1.59743,1.59742 l -0.24457,0.498 -0.0261,3.375 -0.0261,3.375 -2.06639,2.07439 -2.06639,2.07439 0,7.66811 c 0,5.05208 -0.0307,7.66811 -0.09,7.66811 -0.0571,0 -0.09,0.675 -0.09,1.845 l 0,1.845 0.765,0 0.765,0 0,-1.845 z m 5.4,-22.20727 c -1.20466,-0.64411 -1.30847,-2.2034 -0.19875,-2.98506 1.07883,-0.7599 2.59078,-0.0214 2.69572,1.31668 0.10308,1.31447 -1.3469,2.2833 -2.49697,1.66838 z m 18.4142,-25.75331 c 0.59663,-0.27781 1.08111,-0.76991 1.37502,-1.39664 l 0.23578,-0.50278 0,-3.24 0,-3.24 -0.23578,-0.50279 c -0.49311,-1.0515 -1.36402,-1.61045 -2.50922,-1.61045 -1.12761,0 -2.01681,0.55978 -2.48442,1.56404 -0.21297,0.45736 -0.21383,0.4725 -0.21383,3.7892 0,3.31669 9e-4,3.33183 0.21383,3.78919 0.46761,1.00426 1.35681,1.56405 2.48442,1.56405 0.52173,0 0.77926,-0.0486 1.1342,-0.21382 z m -1.8542,-3.5867 c -1.20466,-0.64411 -1.30847,-2.20339 -0.19875,-2.98506 1.07883,-0.75989 2.59078,-0.0214 2.69572,1.31668 0.10308,1.31448 -1.3469,2.2833 -2.49697,1.66838 z m 10.8542,3.5867 c 0.59663,-0.27781 1.0811,-0.76991 1.37502,-1.39664 l 0.23578,-0.50278 0,-3.24 0,-3.24 -0.23578,-0.50279 c -0.49311,-1.0515 -1.36402,-1.61045 -2.50922,-1.61045 -1.12761,0 -2.01681,0.55978 -2.48442,1.56404 -0.21297,0.45736 -0.21383,0.4725 -0.21383,3.7892 0,3.31669 9e-4,3.33183 0.21383,3.78919 0.46761,1.00426 1.35681,1.56405 2.48442,1.56405 0.52173,0 0.77926,-0.0486 1.1342,-0.21382 z m -1.8542,-3.5867 c -1.20466,-0.64411 -1.30847,-2.20339 -0.19875,-2.98506 1.07883,-0.75989 2.59078,-0.0214 2.69572,1.31668 0.10308,1.31448 -1.3469,2.2833 -2.49697,1.66838 z m 10.8542,3.5867 c 0.59663,-0.27781 1.0811,-0.76991 1.37502,-1.39664 l 0.23578,-0.50278 0,-3.24 0,-3.24 -0.23578,-0.50279 c -0.49311,-1.0515 -1.36402,-1.61045 -2.50922,-1.61045 -1.12761,0 -2.01681,0.55978 -2.48442,1.56404 -0.21297,0.45736 -0.21383,0.4725 -0.21383,3.7892 0,3.31669 9e-4,3.33183 0.21383,3.78919 0.46761,1.00426 1.35681,1.56405 2.48442,1.56405 0.52173,0 0.77926,-0.0486 1.1342,-0.21382 z m -1.8542,-3.5867 c -1.20466,-0.64411 -1.30847,-2.20339 -0.19875,-2.98506 1.07883,-0.75989 2.59078,-0.0214 2.69572,1.31668 0.10308,1.31448 -1.3469,2.2833 -2.49697,1.66838 z m 10.8542,3.5867 c 0.59663,-0.27781 1.0811,-0.76991 1.37502,-1.39664 l 0.23578,-0.50278 0,-3.24 0,-3.24 -0.23578,-0.50279 c -0.49311,-1.0515 -1.36402,-1.61045 -2.50922,-1.61045 -1.12761,0 -2.01681,0.55978 -2.48442,1.56404 -0.21297,0.45736 -0.21383,0.4725 -0.21383,3.7892 0,3.31669 9e-4,3.33183 0.21383,3.78919 0.46761,1.00426 1.35681,1.56405 2.48442,1.56405 0.52173,0 0.77926,-0.0486 1.1342,-0.21382 z m -1.8542,-3.5867 c -1.20466,-0.64411 -1.30847,-2.20339 -0.19875,-2.98506 1.07883,-0.75989 2.59078,-0.0214 2.69572,1.31668 0.10308,1.31448 -1.3469,2.2833 -2.49697,1.66838 z"
       style="fill:#000000" />
    <path
       inkscape:export-ydpi="1000"
       inkscape:export-xdpi="1000"
       inkscape:connector-curvature="0"
       id="path3806"
       d="m 17.617349,182.8527 c -4.16196,-2.15372 -7.422633,-5.66488 -9.1996445,-9.90632 L 8.01,171.97324 8.01,95.22 8.01,18.466756 8.4177045,17.493629 C 10.389023,12.788394 14.228394,8.9490227 18.933628,6.9777045 L 19.906756,6.57 96.48,6.57 l 76.57324,0 0.97314,0.4077045 c 4.60804,1.9306015 8.4935,5.7655145 10.42335,10.2877705 l 0.32027,0.750476 0,77.204049 0,77.20405 -0.32027,0.75048 c -1.73177,4.05808 -5.03959,7.57333 -9.10708,9.67817 l -0.92234,0.4773 -77.94031,0 -77.940303,0 -0.922348,-0.4773 z"
       style="fill:none;stroke:#ffffff" />
    <circle
       inkscape:export-ydpi="1000"
       inkscape:export-xdpi="1000"
       r="0.74328166"
       style="fill:#ffffff;fill-opacity:1;stroke:#ffffff;stroke-width:1.01343668;stroke-opacity:1"
       id="path3337-7-4-3-37-7"
       cx="17.150721"
       cy="172.63554" />
    <circle
       inkscape:export-ydpi="1000"
       inkscape:export-xdpi="1000"
       r="0.74328166"
       style="fill:#ffffff;fill-opacity:1;stroke:#ffffff;stroke-width:1.01343668;stroke-opacity:1"
       id="path3337-7-4-3-37-7-1"
       cx="16.975201"
       cy="153.17799" />
    <circle
       inkscape:export-ydpi="1000"
       inkscape:export-xdpi="1000"
       r="0.74328166"
       style="fill:#ffffff;fill-opacity:1;stroke:#ffffff;stroke-width:1.01343668;stroke-opacity:1"
       id="path3337-7-4-3-37-7-0"
       cx="40.55761"
       cy="150.82362" />
    <circle
       inkscape:export-ydpi="1000"
       inkscape:export-xdpi="1000"
       r="0.74328166"
       style="fill:#ffffff;fill-opacity:1;stroke:#ffffff;stroke-width:1.01343668;stroke-opacity:1"
       id="path3337-7-4-3-37-7-10"
       cx="49.582233"
       cy="150.80589" />
    <circle
       inkscape:export-ydpi="1000"
       inkscape:export-xdpi="1000"
       r="0.74328166"
       style="fill:#ffffff;fill-opacity:1;stroke:#ffffff;stroke-width:1.01343668;stroke-opacity:1"
       id="path3337-7-4-3-37-7-7"
       cx="58.606857"
       cy="150.78816" />
    <circle
       inkscape:export-ydpi="1000"
       inkscape:export-xdpi="1000"
       r="0.74328166"
       style="fill:#ffffff;fill-opacity:1;stroke:#ffffff;stroke-width:1.01343668;stroke-opacity:1"
       id="path3337-7-4-3-37-7-12"
       cx="67.587151"
       cy="150.81476" />
    <circle
       inkscape:export-ydpi="1000"
       inkscape:export-xdpi="1000"
       r="0.74328166"
       style="fill:#ffffff;fill-opacity:1;stroke:#ffffff;stroke-width:1.01343668;stroke-opacity:1"
       id="path3337-7-4-3-37-7-9"
       cx="76.540855"
       cy="150.79703" />
    <circle
       inkscape:export-ydpi="1000"
       inkscape:export-xdpi="1000"
       r="0.74328166"
       style="fill:#ffffff;fill-opacity:1;stroke:#ffffff;stroke-width:1.01343668;stroke-opacity:1"
       id="path3337-7-4-3-37-7-4"
       cx="85.556618"
       cy="150.77043" />
    <circle
       inkscape:export-ydpi="1000"
       inkscape:export-xdpi="1000"
       r="0.74328166"
       style="fill:#ffffff;fill-opacity:1;stroke:#ffffff;stroke-width:1.01343668;stroke-opacity:1"
       id="path3337-7-4-3-37-7-04"
       cx="94.581238"
       cy="150.79703" />
    <circle
       inkscape:export-ydpi="1000"
       inkscape:export-xdpi="1000"
       r="0.74328166"
       style="fill:#ffffff;fill-opacity:1;stroke:#ffffff;stroke-width:1.01343668;stroke-opacity:1"
       id="path3337-7-4-3-37-7-97"
       cx="123.33616"
       cy="153.9007" />
    <circle
       inkscape:export-ydpi="1000"
       inkscape:export-xdpi="1000"
       r="0.74328166"
       style="fill:#ffffff;fill-opacity:1;stroke:#ffffff;stroke-width:1.01343668;stroke-opacity:1"
       id="path3337-7-4-3-37-7-5"
       cx="123.37738"
       cy="144.82831" />
    <circle
       inkscape:export-ydpi="1000"
       inkscape:export-xdpi="1000"
       r="0.74328166"
       style="fill:#ffffff;fill-opacity:1;stroke:#ffffff;stroke-width:1.01343668;stroke-opacity:1"
       id="path3337-7-4-3-37-7-2"
       cx="123.3306"
       cy="135.85942" />
    <circle
       inkscape:export-ydpi="1000"
       inkscape:export-xdpi="1000"
       r="0.74328166"
       style="fill:#ffffff;fill-opacity:1;stroke:#ffffff;stroke-width:1.01343668;stroke-opacity:1"
       id="path3337-7-4-3-37-7-59"
       cx="106.62885"
       cy="135.59346" />
    <circle
       inkscape:export-ydpi="1000"
       inkscape:export-xdpi="1000"
       r="0.74328166"
       style="fill:#ffffff;fill-opacity:1;stroke:#ffffff;stroke-width:1.01343668;stroke-opacity:1"
       id="path3337-7-4-3-37-7-3"
       cx="176.59726"
       cy="172.7233" />
    <circle
       inkscape:export-ydpi="1000"
       inkscape:export-xdpi="1000"
       r="0.74328166"
       style="fill:#ffffff;fill-opacity:1;stroke:#ffffff;stroke-width:1.01343668;stroke-opacity:1"
       id="path3337-7-4-3-37-7-8"
       cx="163.58679"
       cy="154.57355" />
    <circle
       inkscape:export-ydpi="1000"
       inkscape:export-xdpi="1000"
       r="0.74328166"
       style="fill:#ffffff;fill-opacity:1;stroke:#ffffff;stroke-width:1.01343668;stroke-opacity:1"
       id="path3337-7-4-3-37-7-89"
       cx="163.58379"
       cy="109.51136" />
    <circle
       inkscape:export-ydpi="1000"
       inkscape:export-xdpi="1000"
       r="0.74328166"
       style="fill:#ffffff;fill-opacity:1;stroke:#ffffff;stroke-width:1.01343668;stroke-opacity:1"
       id="path3337-7-4-3-37-7-18"
       cx="176.80412"
       cy="109.5427" />
    <circle
       inkscape:export-ydpi="1000"
       inkscape:export-xdpi="1000"
       r="0.74328166"
       style="fill:#ffffff;fill-opacity:1;stroke:#ffffff;stroke-width:1.01343668;stroke-opacity:1"
       id="path3337-7-4-3-37-7-52"
       cx="150.55193"
       cy="84.454727" />
    <circle
       inkscape:export-ydpi="1000"
       inkscape:export-xdpi="1000"
       r="0.74328166"
       style="fill:#ffffff;fill-opacity:1;stroke:#ffffff;stroke-width:1.01343668;stroke-opacity:1"
       id="path3337-7-4-3-37-7-590"
       cx="140.64404"
       cy="84.468704" />
    <circle
       inkscape:export-ydpi="1000"
       inkscape:export-xdpi="1000"
       r="0.74328166"
       style="fill:#ffffff;fill-opacity:1;stroke:#ffffff;stroke-width:1.01343668;stroke-opacity:1"
       id="path3337-7-4-3-37-7-15"
       cx="150.369"
       cy="67.252777" />
    <circle
       inkscape:export-ydpi="1000"
       inkscape:export-xdpi="1000"
       r="0.74328166"
       style="fill:#ffffff;fill-opacity:1;stroke:#ffffff;stroke-width:1.01343668;stroke-opacity:1"
       id="path3337-7-4-3-37-7-84"
       cx="140.45033"
       cy="67.259735" />
    <circle
       inkscape:export-ydpi="1000"
       inkscape:export-xdpi="1000"
       r="0.74328166"
       style="fill:#ffffff;fill-opacity:1;stroke:#ffffff;stroke-width:1.01343668;stroke-opacity:1"
       id="path3337-7-4-3-37-7-71"
       cx="163.50702"
       cy="56.455147" />
    <circle
       inkscape:export-ydpi="1000"
       inkscape:export-xdpi="1000"
       r="0.74328166"
       style="fill:#ffffff;fill-opacity:1;stroke:#ffffff;stroke-width:1.01343668;stroke-opacity:1"
       id="path3337-7-4-3-37-7-45"
       cx="150.34462"
       cy="49.220562" />
    <circle
       inkscape:export-ydpi="1000"
       inkscape:export-xdpi="1000"
       r="0.74328166"
       style="fill:#ffffff;fill-opacity:1;stroke:#ffffff;stroke-width:1.01343668;stroke-opacity:1"
       id="path3337-7-4-3-37-7-48"
       cx="140.49048"
       cy="49.182949" />
    <circle
       inkscape:export-ydpi="1000"
       inkscape:export-xdpi="1000"
       r="0.74328166"
       style="fill:#ffffff;fill-opacity:1;stroke:#ffffff;stroke-width:1.01343668;stroke-opacity:1"
       id="path3337-7-4-3-37-7-6"
       cx="150.29111"
       cy="32.181808" />
    <circle
       inkscape:export-ydpi="1000"
       inkscape:export-xdpi="1000"
       r="0.74328166"
       style="fill:#ffffff;fill-opacity:1;stroke:#ffffff;stroke-width:1.01343668;stroke-opacity:1"
       id="path3337-7-4-3-37-7-88"
       cx="141.30539"
       cy="32.176403" />
    <circle
       inkscape:export-ydpi="1000"
       inkscape:export-xdpi="1000"
       r="0.74328166"
       style="fill:#ffffff;fill-opacity:1;stroke:#ffffff;stroke-width:1.01343668;stroke-opacity:1"
       id="path3337-7-4-3-37-7-29"
       cx="132.30203"
       cy="32.164906" />
    <circle
       inkscape:export-ydpi="1000"
       inkscape:export-xdpi="1000"
       r="0.74328166"
       style="fill:#ffffff;fill-opacity:1;stroke:#ffffff;stroke-width:1.01343668;stroke-opacity:1"
       id="path3337-7-4-3-37-7-78"
       cx="123.28627"
       cy="32.173767" />
    <circle
       inkscape:export-ydpi="1000"
       inkscape:export-xdpi="1000"
       r="0.74328166"
       style="fill:#ffffff;fill-opacity:1;stroke:#ffffff;stroke-width:1.01343668;stroke-opacity:1"
       id="path3337-7-4-3-37-7-33"
       cx="114.28825"
       cy="32.182632" />
    <circle
       inkscape:export-ydpi="1000"
       inkscape:export-xdpi="1000"
       r="0.74328166"
       style="fill:#ffffff;fill-opacity:1;stroke:#ffffff;stroke-width:1.01343668;stroke-opacity:1"
       id="path3337-7-4-3-37-7-973"
       cx="105.27248"
       cy="32.173771" />
    <circle
       inkscape:export-ydpi="1000"
       inkscape:export-xdpi="1000"
       r="0.74328166"
       style="fill:#ffffff;fill-opacity:1;stroke:#ffffff;stroke-width:1.01343668;stroke-opacity:1"
       id="path3337-7-4-3-37-7-786"
       cx="96.247864"
       cy="32.182632" />
    <circle
       inkscape:export-ydpi="1000"
       inkscape:export-xdpi="1000"
       r="0.74328166"
       style="fill:#ffffff;fill-opacity:1;stroke:#ffffff;stroke-width:1.01343668;stroke-opacity:1"
       id="path3337-7-4-3-37-7-53"
       cx="87.270592"
       cy="32.145065" />
    <circle
       inkscape:export-ydpi="1000"
       inkscape:export-xdpi="1000"
       r="0.74328166"
       style="fill:#ffffff;fill-opacity:1;stroke:#ffffff;stroke-width:1.01343668;stroke-opacity:1"
       id="path3337-7-4-3-37-7-92"
       cx="59.795586"
       cy="31.850441" />
    <circle
       inkscape:export-ydpi="1000"
       inkscape:export-xdpi="1000"
       r="0.74328166"
       style="fill:#ffffff;fill-opacity:1;stroke:#ffffff;stroke-width:1.01343668;stroke-opacity:1"
       id="path3337-7-4-3-37-7-41"
       cx="58.447849"
       cy="45.760326" />
    <circle
       inkscape:export-ydpi="1000"
       inkscape:export-xdpi="1000"
       r="0.74328166"
       style="fill:#ffffff;fill-opacity:1;stroke:#ffffff;stroke-width:1.01343668;stroke-opacity:1"
       id="path3337-7-4-3-37-7-62"
       cx="49.458767"
       cy="45.747791" />
    <circle
       inkscape:export-ydpi="1000"
       inkscape:export-xdpi="1000"
       r="0.74328166"
       style="fill:#ffffff;fill-opacity:1;stroke:#ffffff;stroke-width:1.01343668;stroke-opacity:1"
       id="path3337-7-4-3-37-7-109"
       cx="49.360607"
       cy="62.855713" />
    <circle
       inkscape:export-ydpi="1000"
       inkscape:export-xdpi="1000"
       r="0.74328166"
       style="fill:#ffffff;fill-opacity:1;stroke:#ffffff;stroke-width:1.01343668;stroke-opacity:1"
       id="path3337-7-4-3-37-7-27"
       cx="72.482475"
       cy="52.223919" />
    <circle
       inkscape:transform-center-y="0.37611229"
       inkscape:transform-center-x="0.36984375"
       inkscape:export-ydpi="1000"
       inkscape:export-xdpi="1000"
       r="0.74328166"
       style="fill:#ffffff;fill-opacity:1;stroke:#ffffff;stroke-width:1.01343668;stroke-opacity:1"
       id="path3337-7-4-3-37-7-68"
       cx="82.399933"
       cy="52.248264" />
    <circle
       inkscape:export-ydpi="1000"
       inkscape:export-xdpi="1000"
       r="0.74328166"
       style="fill:#ffffff;fill-opacity:1;stroke:#ffffff;stroke-width:1.01343668;stroke-opacity:1"
       id="path3337-7-4-3-37-7-538"
       cx="106.76574"
       cy="61.557045" />
    <circle
       inkscape:transform-center-x="0.062685382"
       inkscape:export-ydpi="1000"
       inkscape:export-xdpi="1000"
       r="0.74328166"
       style="fill:#ffffff;fill-opacity:1;stroke:#ffffff;stroke-width:1.01343668;stroke-opacity:1"
       id="path3337-7-4-3-37-7-47"
       cx="115.69839"
       cy="61.550774" />
    <circle
       inkscape:export-ydpi="1000"
       inkscape:export-xdpi="1000"
       r="0.74328166"
       style="fill:#ffffff;fill-opacity:1;stroke:#ffffff;stroke-width:1.01343668;stroke-opacity:1"
       id="path3337-7-4-3-37-7-73"
       cx="124.63109"
       cy="61.506897" />
    <circle
       inkscape:export-ydpi="1000"
       inkscape:export-xdpi="1000"
       r="0.74328166"
       style="fill:#ffffff;fill-opacity:1;stroke:#ffffff;stroke-width:1.01343668;stroke-opacity:1"
       id="path3337-7-4-3-37-7-738"
       cx="16.893711"
       cy="42.738892" />
    <circle
       inkscape:export-ydpi="1000"
       inkscape:export-xdpi="1000"
       r="0.74328166"
       style="fill:#ffffff;fill-opacity:1;stroke:#ffffff;stroke-width:1.01343668;stroke-opacity:1"
       id="path3337-7-4-3-37-7-60"
       cx="17.253834"
       cy="17.098879" />
    <circle
       inkscape:export-ydpi="1000"
       inkscape:export-xdpi="1000"
       r="0.74328166"
       style="fill:#ffffff;fill-opacity:1;stroke:#ffffff;stroke-width:1.01343668;stroke-opacity:1"
       id="path3337-7-4-3-37-7-35"
       cx="176.90286"
       cy="18.032726" />
  </g>
</svg>
